<svg xmlns="http://www.w3.org/2000/svg" xmlns:xlink="http://www.w3.org/1999/xlink" width="16" zoomAndPan="magnify" viewBox="0 0 30 30.000001" height="16" preserveAspectRatio="xMidYMid meet" version="1.0"><defs><clipPath id="6892f404ea"><path d="M 0.484375 0 L 29.515625 0 L 29.515625 29.03125 L 0.484375 29.03125 Z M 0.484375 0 " clip-rule="nonzero" /></clipPath><clipPath id="3df60cc0cf"><path d="M 3.386719 12.800781 L 18.042969 12.800781 L 18.042969 27.457031 L 3.386719 27.457031 Z M 3.386719 12.800781 " clip-rule="nonzero" /></clipPath><clipPath id="80dffc26d9"><path d="M 10.714844 12.800781 C 6.667969 12.800781 3.386719 16.082031 3.386719 20.128906 C 3.386719 24.175781 6.667969 27.457031 10.714844 27.457031 C 14.761719 27.457031 18.042969 24.175781 18.042969 20.128906 C 18.042969 16.082031 14.761719 12.800781 10.714844 12.800781 Z M 10.714844 12.800781 " clip-rule="nonzero" /></clipPath><clipPath id="c42761375e"><path d="M 11.898438 1.574219 L 26.558594 1.574219 L 26.558594 16.230469 L 11.898438 16.230469 Z M 11.898438 1.574219 " clip-rule="nonzero" /></clipPath><clipPath id="77eb8ca4eb"><path d="M 19.230469 1.574219 C 15.179688 1.574219 11.898438 4.855469 11.898438 8.902344 C 11.898438 12.949219 15.179688 16.230469 19.230469 16.230469 C 23.277344 16.230469 26.558594 12.949219 26.558594 8.902344 C 26.558594 4.855469 23.277344 1.574219 19.230469 1.574219 Z M 19.230469 1.574219 " clip-rule="nonzero" /></clipPath><clipPath id="bb8ab6323a"><path d="M 5.3125 5.097656 L 25.8125 5.097656 L 25.8125 25.597656 L 5.3125 25.597656 Z M 5.3125 5.097656 " clip-rule="nonzero" /></clipPath><clipPath id="164f36286e"><path d="M 15.5625 5.097656 C 9.902344 5.097656 5.3125 9.6875 5.3125 15.347656 C 5.3125 21.011719 9.902344 25.597656 15.5625 25.597656 C 21.226562 25.597656 25.8125 21.011719 25.8125 15.347656 C 25.8125 9.6875 21.226562 5.097656 15.5625 5.097656 Z M 15.5625 5.097656 " clip-rule="nonzero" /></clipPath><clipPath id="d44d541f01"><path d="M 5.132812 2.738281 L 25.371094 2.738281 L 25.371094 26.324219 L 5.132812 26.324219 Z M 5.132812 2.738281 " clip-rule="nonzero" /></clipPath><clipPath id="94ab662d28"><path d="M 16 6 L 18 6 L 18 8 L 16 8 Z M 16 6 " clip-rule="nonzero" /></clipPath><clipPath id="cecfc8083d"><path d="M 17.128906 7.761719 L 16.542969 7.332031 L 17.3125 6.273438 L 17.902344 6.699219 Z M 17.128906 7.761719 " clip-rule="nonzero" /></clipPath><clipPath id="e10ffb1268"><path d="M 17.128906 7.761719 L 16.542969 7.332031 L 17.3125 6.273438 L 17.902344 6.699219 Z M 17.128906 7.761719 " clip-rule="nonzero" /></clipPath><clipPath id="e80d2bfc8f"><path d="M 17.128906 7.761719 L 16.542969 7.332031 L 17.3125 6.273438 L 17.902344 6.699219 Z M 17.128906 7.761719 " clip-rule="nonzero" /></clipPath><clipPath id="d2b9b0524c"><path d="M 22 10 L 24 10 L 24 12 L 22 12 Z M 22 10 " clip-rule="nonzero" /></clipPath><clipPath id="9b39aba8fe"><path d="M 23.25 10.601562 L 23.636719 11.21875 L 22.523438 11.914062 L 22.136719 11.296875 Z M 23.25 10.601562 " clip-rule="nonzero" /></clipPath><clipPath id="ab962df8ac"><path d="M 23.25 10.601562 L 23.636719 11.21875 L 22.523438 11.914062 L 22.136719 11.296875 Z M 23.25 10.601562 " clip-rule="nonzero" /></clipPath><clipPath id="759262c1e0"><path d="M 23.25 10.601562 L 23.636719 11.21875 L 22.523438 11.914062 L 22.136719 11.296875 Z M 23.25 10.601562 " clip-rule="nonzero" /></clipPath><clipPath id="889982e53f"><path d="M 8 23 L 11 23 L 11 27 L 8 27 Z M 8 23 " clip-rule="nonzero" /></clipPath><clipPath id="7bfdaec270"><path d="M 8.164062 26.304688 L 9.15625 23.957031 L 10.167969 24.382812 L 9.175781 26.730469 Z M 8.164062 26.304688 " clip-rule="nonzero" /></clipPath><clipPath id="6c015a768e"><path d="M 8.164062 26.304688 L 9.15625 23.957031 L 10.167969 24.382812 L 9.175781 26.730469 Z M 8.164062 26.304688 " clip-rule="nonzero" /></clipPath><clipPath id="27554c6eb1"><path d="M 9 25 L 11 25 L 11 27 L 9 27 Z M 9 25 " clip-rule="nonzero" /></clipPath><clipPath id="718589e24b"><path d="M 9.421875 25.375 L 10.148438 25.429688 L 10.050781 26.734375 L 9.324219 26.679688 Z M 9.421875 25.375 " clip-rule="nonzero" /></clipPath><clipPath id="08475a0a44"><path d="M 9.421875 25.375 L 10.148438 25.429688 L 10.050781 26.734375 L 9.324219 26.679688 Z M 9.421875 25.375 " clip-rule="nonzero" /></clipPath><clipPath id="2ccd9a903f"><path d="M 9.421875 25.375 L 10.148438 25.429688 L 10.050781 26.734375 L 9.324219 26.679688 Z M 9.421875 25.375 " clip-rule="nonzero" /></clipPath><clipPath id="73d9960f3c"><path d="M 7 24 L 9 24 L 9 26 L 7 26 Z M 7 24 " clip-rule="nonzero" /></clipPath><clipPath id="813b99e3fa"><path d="M 8.246094 26.242188 L 7.640625 25.839844 L 8.367188 24.75 L 8.972656 25.152344 Z M 8.246094 26.242188 " clip-rule="nonzero" /></clipPath><clipPath id="6bc972b9d0"><path d="M 8.246094 26.242188 L 7.640625 25.839844 L 8.367188 24.75 L 8.972656 25.152344 Z M 8.246094 26.242188 " clip-rule="nonzero" /></clipPath><clipPath id="684090d9b3"><path d="M 8.246094 26.242188 L 7.640625 25.839844 L 8.367188 24.75 L 8.972656 25.152344 Z M 8.246094 26.242188 " clip-rule="nonzero" /></clipPath></defs><g clip-path="url(#6892f404ea)"><path fill="#ffffff" d="M 0.484375 0 L 29.515625 0 L 29.515625 29.03125 L 0.484375 29.03125 Z M 0.484375 0 " fill-opacity="1" fill-rule="nonzero" /><path fill="#ffffff" d="M 0.484375 0 L 29.515625 0 L 29.515625 29.03125 L 0.484375 29.03125 Z M 0.484375 0 " fill-opacity="1" fill-rule="nonzero" /></g><g clip-path="url(#3df60cc0cf)"><g clip-path="url(#80dffc26d9)"><path fill="#4d9906" d="M 3.386719 12.800781 L 18.042969 12.800781 L 18.042969 27.457031 L 3.386719 27.457031 Z M 3.386719 12.800781 " fill-opacity="1" fill-rule="nonzero" /></g></g><g clip-path="url(#c42761375e)"><g clip-path="url(#77eb8ca4eb)"><path fill="#f2460b" d="M 11.898438 1.574219 L 26.558594 1.574219 L 26.558594 16.230469 L 11.898438 16.230469 Z M 11.898438 1.574219 " fill-opacity="1" fill-rule="nonzero" /></g></g><g clip-path="url(#bb8ab6323a)"><g clip-path="url(#164f36286e)"><path fill="#fea500" d="M 5.3125 5.097656 L 25.8125 5.097656 L 25.8125 25.597656 L 5.3125 25.597656 Z M 5.3125 5.097656 " fill-opacity="1" fill-rule="nonzero" /></g></g><g clip-path="url(#d44d541f01)"><path fill="#000000" d="M 10.785156 26.277344 C 9.6875 26.292969 8.292969 25.90625 7.058594 25.015625 C 6.464844 24.582031 5.933594 24.082031 5.589844 23.417969 C 5.148438 22.574219 5.171875 21.738281 5.644531 20.917969 C 5.953125 20.386719 6.3125 19.890625 6.671875 19.394531 C 7.472656 18.296875 7.855469 17.046875 8.042969 15.726562 C 8.234375 14.40625 8.390625 13.078125 8.78125 11.792969 C 9.175781 10.476562 9.742188 9.253906 10.691406 8.238281 C 11.789062 7.066406 13.121094 6.339844 14.734375 6.167969 C 15.671875 6.066406 16.523438 6.289062 17.25 6.917969 C 17.289062 6.949219 17.328125 6.980469 17.359375 7.019531 C 17.417969 7.089844 17.429688 7.171875 17.363281 7.246094 C 17.304688 7.3125 17.230469 7.316406 17.152344 7.277344 C 17.125 7.261719 17.09375 7.242188 17.070312 7.21875 C 16.328125 6.558594 15.453125 6.386719 14.5 6.546875 C 12.527344 6.875 11.09375 7.980469 10.066406 9.652344 C 9.425781 10.691406 9.09375 11.847656 8.824219 13.023438 C 8.617188 13.917969 8.515625 14.832031 8.398438 15.742188 C 8.183594 17.351562 7.617188 18.808594 6.613281 20.089844 C 6.421875 20.335938 6.257812 20.605469 6.085938 20.863281 C 5.375 21.925781 5.480469 22.925781 6.34375 23.898438 C 7.375 25.058594 8.691406 25.699219 10.230469 25.871094 C 12.667969 26.140625 14.828125 25.433594 16.757812 23.960938 C 18.441406 22.675781 19.835938 21.121094 20.988281 19.339844 C 21.804688 18.074219 22.507812 16.761719 22.898438 15.296875 C 23.171875 14.257812 23.273438 13.207031 23.082031 12.140625 C 23.03125 11.867188 22.964844 11.59375 22.835938 11.34375 C 22.785156 11.246094 22.773438 11.144531 22.886719 11.082031 C 22.996094 11.019531 23.082031 11.078125 23.136719 11.175781 C 23.320312 11.507812 23.398438 11.875 23.453125 12.242188 C 23.640625 13.539062 23.445312 14.789062 23.042969 16.027344 C 22.570312 17.484375 21.785156 18.769531 20.9375 20.03125 C 19.675781 21.90625 18.117188 23.492188 16.242188 24.746094 C 14.726562 25.757812 13.035156 26.277344 10.785156 26.277344 Z M 19.765625 8.152344 C 19.753906 8.148438 19.742188 8.144531 19.730469 8.144531 C 19.371094 8.015625 19 8 18.625 8.027344 C 18.339844 8.050781 18.058594 8.082031 17.773438 8.058594 C 17.367188 8.03125 16.996094 7.929688 16.730469 7.585938 C 16.667969 7.5 16.578125 7.457031 16.484375 7.523438 C 16.382812 7.597656 16.398438 7.699219 16.457031 7.792969 C 16.582031 7.984375 16.761719 8.117188 16.964844 8.214844 C 17.3125 8.390625 17.6875 8.417969 18.070312 8.410156 C 18.394531 8.40625 18.714844 8.347656 19.039062 8.363281 C 19.550781 8.394531 19.984375 8.578125 20.308594 8.996094 C 20.5625 9.324219 20.871094 9.601562 21.226562 9.8125 C 22.058594 10.304688 22.964844 10.4375 23.914062 10.355469 C 24.347656 10.316406 24.75 10.164062 25.125 9.953125 C 25.355469 9.824219 25.382812 9.667969 25.230469 9.457031 C 25.207031 9.425781 25.183594 9.394531 25.160156 9.363281 C 24.871094 9.035156 24.683594 8.65625 24.582031 8.230469 C 24.484375 7.832031 24.40625 7.425781 24.234375 7.046875 C 23.730469 5.945312 22.722656 5.035156 21.117188 5.527344 C 20.902344 5.59375 20.8125 5.679688 20.863281 5.792969 C 20.941406 5.964844 21.082031 5.898438 21.210938 5.863281 C 21.589844 5.757812 21.972656 5.691406 22.363281 5.777344 C 22.945312 5.910156 23.355469 6.277344 23.683594 6.757812 C 23.984375 7.203125 24.097656 7.714844 24.21875 8.222656 C 24.3125 8.605469 24.445312 8.96875 24.664062 9.296875 C 24.746094 9.421875 24.949219 9.535156 24.890625 9.664062 C 24.832031 9.785156 24.621094 9.816406 24.46875 9.871094 C 23.761719 10.113281 23.054688 10.070312 22.34375 9.898438 C 21.050781 9.582031 20.050781 8.492188 19.863281 7.175781 C 19.808594 6.800781 19.835938 6.425781 19.980469 6.058594 C 20.035156 6.09375 20.046875 6.148438 20.070312 6.191406 C 20.402344 6.832031 20.804688 7.421875 21.335938 7.921875 C 21.742188 8.300781 22.195312 8.609375 22.734375 8.773438 C 22.855469 8.8125 22.976562 8.824219 23.023438 8.671875 C 23.0625 8.53125 22.957031 8.476562 22.84375 8.441406 C 22.320312 8.277344 21.878906 7.980469 21.5 7.59375 C 20.617188 6.707031 20.09375 5.617188 19.777344 4.421875 C 19.753906 4.339844 19.761719 4.265625 19.785156 4.191406 C 19.875 3.878906 19.941406 3.5625 20 3.246094 C 20.019531 3.152344 20.035156 3.058594 20.042969 2.964844 C 20.054688 2.859375 20.019531 2.773438 19.902344 2.753906 C 19.789062 2.738281 19.730469 2.804688 19.707031 2.914062 C 19.695312 2.960938 19.6875 3.011719 19.679688 3.058594 C 19.460938 4.3125 19.050781 5.492188 18.402344 6.589844 C 18.234375 6.871094 18.042969 7.136719 17.828125 7.386719 C 17.746094 7.476562 17.695312 7.582031 17.804688 7.675781 C 17.914062 7.769531 18.015625 7.703125 18.09375 7.613281 C 18.160156 7.535156 18.222656 7.460938 18.285156 7.378906 C 18.804688 6.695312 19.175781 5.933594 19.480469 5.132812 C 19.5 5.082031 19.5 5.015625 19.570312 4.980469 C 19.644531 5.183594 19.710938 5.378906 19.785156 5.570312 C 19.808594 5.632812 19.785156 5.675781 19.757812 5.722656 C 19.636719 5.914062 19.574219 6.128906 19.539062 6.351562 C 19.4375 6.960938 19.523438 7.546875 19.761719 8.113281 C 19.765625 8.125 19.765625 8.136719 19.765625 8.152344 Z M 9.8125 16.582031 C 9.9375 16.601562 10 16.527344 10.023438 16.414062 C 10.101562 16.03125 10.183594 15.652344 10.253906 15.269531 C 10.414062 14.398438 10.476562 13.515625 10.683594 12.652344 C 11.078125 11.015625 11.863281 9.65625 13.332031 8.757812 C 13.429688 8.695312 13.507812 8.617188 13.441406 8.5 C 13.367188 8.371094 13.253906 8.40625 13.148438 8.464844 C 13.121094 8.476562 13.097656 8.492188 13.074219 8.507812 C 12.4375 8.902344 11.90625 9.410156 11.464844 10.015625 C 10.777344 10.964844 10.417969 12.046875 10.214844 13.1875 C 10.089844 13.917969 10 14.652344 9.878906 15.382812 C 9.828125 15.710938 9.746094 16.035156 9.683594 16.339844 C 9.671875 16.46875 9.699219 16.558594 9.8125 16.582031 Z M 14.054688 8.144531 C 14.054688 8.238281 14.109375 8.300781 14.207031 8.300781 C 14.304688 8.304688 14.363281 8.25 14.367188 8.148438 C 14.367188 8.046875 14.3125 7.996094 14.214844 7.984375 C 14.117188 7.992188 14.054688 8.042969 14.054688 8.144531 Z M 14.054688 8.144531 " fill-opacity="1" fill-rule="nonzero" /><path fill="#000000" d="M 10.785156 26.277344 C 9.6875 26.292969 8.292969 25.90625 7.058594 25.015625 C 6.464844 24.582031 5.933594 24.082031 5.589844 23.417969 C 5.148438 22.574219 5.171875 21.738281 5.644531 20.917969 C 5.953125 20.386719 6.3125 19.890625 6.671875 19.394531 C 7.472656 18.296875 7.855469 17.046875 8.042969 15.726562 C 8.234375 14.40625 8.390625 13.078125 8.78125 11.792969 C 9.175781 10.476562 9.742188 9.253906 10.691406 8.238281 C 11.789062 7.066406 13.121094 6.339844 14.734375 6.167969 C 15.671875 6.066406 16.523438 6.289062 17.25 6.917969 C 17.289062 6.949219 17.328125 6.980469 17.359375 7.019531 C 17.417969 7.089844 17.429688 7.171875 17.363281 7.246094 C 17.304688 7.3125 17.230469 7.316406 17.152344 7.277344 C 17.125 7.261719 17.09375 7.242188 17.070312 7.21875 C 16.328125 6.558594 15.453125 6.386719 14.5 6.546875 C 12.527344 6.875 11.09375 7.980469 10.066406 9.652344 C 9.425781 10.691406 9.09375 11.847656 8.824219 13.023438 C 8.617188 13.917969 8.515625 14.832031 8.398438 15.742188 C 8.183594 17.351562 7.617188 18.808594 6.613281 20.089844 C 6.421875 20.335938 6.257812 20.605469 6.085938 20.863281 C 5.375 21.925781 5.480469 22.925781 6.34375 23.898438 C 7.375 25.058594 8.691406 25.699219 10.230469 25.871094 C 12.667969 26.140625 14.828125 25.433594 16.757812 23.960938 C 18.441406 22.675781 19.835938 21.121094 20.988281 19.339844 C 21.804688 18.074219 22.507812 16.761719 22.898438 15.296875 C 23.171875 14.257812 23.273438 13.207031 23.082031 12.140625 C 23.03125 11.867188 22.964844 11.59375 22.835938 11.34375 C 22.785156 11.246094 22.773438 11.144531 22.886719 11.082031 C 22.996094 11.019531 23.082031 11.078125 23.136719 11.175781 C 23.320312 11.507812 23.398438 11.875 23.453125 12.242188 C 23.640625 13.539062 23.445312 14.789062 23.042969 16.027344 C 22.570312 17.484375 21.785156 18.769531 20.9375 20.03125 C 19.675781 21.90625 18.117188 23.492188 16.242188 24.746094 C 14.726562 25.757812 13.035156 26.277344 10.785156 26.277344 Z M 19.765625 8.152344 C 19.753906 8.148438 19.742188 8.144531 19.730469 8.144531 C 19.371094 8.015625 19 8 18.625 8.027344 C 18.339844 8.050781 18.058594 8.082031 17.773438 8.058594 C 17.367188 8.03125 16.996094 7.929688 16.730469 7.585938 C 16.667969 7.5 16.578125 7.457031 16.484375 7.523438 C 16.382812 7.597656 16.398438 7.699219 16.457031 7.792969 C 16.582031 7.984375 16.761719 8.117188 16.964844 8.214844 C 17.3125 8.390625 17.6875 8.417969 18.070312 8.410156 C 18.394531 8.40625 18.714844 8.347656 19.039062 8.363281 C 19.550781 8.394531 19.984375 8.578125 20.308594 8.996094 C 20.5625 9.324219 20.871094 9.601562 21.226562 9.8125 C 22.058594 10.304688 22.964844 10.4375 23.914062 10.355469 C 24.347656 10.316406 24.75 10.164062 25.125 9.953125 C 25.355469 9.824219 25.382812 9.667969 25.230469 9.457031 C 25.207031 9.425781 25.183594 9.394531 25.160156 9.363281 C 24.871094 9.035156 24.683594 8.65625 24.582031 8.230469 C 24.484375 7.832031 24.40625 7.425781 24.234375 7.046875 C 23.730469 5.945312 22.722656 5.035156 21.117188 5.527344 C 20.902344 5.59375 20.8125 5.679688 20.863281 5.792969 C 20.941406 5.964844 21.082031 5.898438 21.210938 5.863281 C 21.589844 5.757812 21.972656 5.691406 22.363281 5.777344 C 22.945312 5.910156 23.355469 6.277344 23.683594 6.757812 C 23.984375 7.203125 24.097656 7.714844 24.21875 8.222656 C 24.3125 8.605469 24.445312 8.96875 24.664062 9.296875 C 24.746094 9.421875 24.949219 9.535156 24.890625 9.664062 C 24.832031 9.785156 24.621094 9.816406 24.46875 9.871094 C 23.761719 10.113281 23.054688 10.070312 22.34375 9.898438 C 21.050781 9.582031 20.050781 8.492188 19.863281 7.175781 C 19.808594 6.800781 19.835938 6.425781 19.980469 6.058594 C 20.035156 6.09375 20.046875 6.148438 20.070312 6.191406 C 20.402344 6.832031 20.804688 7.421875 21.335938 7.921875 C 21.742188 8.300781 22.195312 8.609375 22.734375 8.773438 C 22.855469 8.8125 22.976562 8.824219 23.023438 8.671875 C 23.0625 8.53125 22.957031 8.476562 22.84375 8.441406 C 22.320312 8.277344 21.878906 7.980469 21.5 7.59375 C 20.617188 6.707031 20.09375 5.617188 19.777344 4.421875 C 19.753906 4.339844 19.761719 4.265625 19.785156 4.191406 C 19.875 3.878906 19.941406 3.5625 20 3.246094 C 20.019531 3.152344 20.035156 3.058594 20.042969 2.964844 C 20.054688 2.859375 20.019531 2.773438 19.902344 2.753906 C 19.789062 2.738281 19.730469 2.804688 19.707031 2.914062 C 19.695312 2.960938 19.6875 3.011719 19.679688 3.058594 C 19.460938 4.3125 19.050781 5.492188 18.402344 6.589844 C 18.234375 6.871094 18.042969 7.136719 17.828125 7.386719 C 17.746094 7.476562 17.695312 7.582031 17.804688 7.675781 C 17.914062 7.769531 18.015625 7.703125 18.09375 7.613281 C 18.160156 7.535156 18.222656 7.460938 18.285156 7.378906 C 18.804688 6.695312 19.175781 5.933594 19.480469 5.132812 C 19.5 5.082031 19.5 5.015625 19.570312 4.980469 C 19.644531 5.183594 19.710938 5.378906 19.785156 5.570312 C 19.808594 5.632812 19.785156 5.675781 19.757812 5.722656 C 19.636719 5.914062 19.574219 6.128906 19.539062 6.351562 C 19.4375 6.960938 19.523438 7.546875 19.761719 8.113281 C 19.765625 8.125 19.765625 8.136719 19.765625 8.152344 Z M 9.8125 16.582031 C 9.9375 16.601562 10 16.527344 10.023438 16.414062 C 10.101562 16.03125 10.183594 15.652344 10.253906 15.269531 C 10.414062 14.398438 10.476562 13.515625 10.683594 12.652344 C 11.078125 11.015625 11.863281 9.65625 13.332031 8.757812 C 13.429688 8.695312 13.507812 8.617188 13.441406 8.5 C 13.367188 8.371094 13.253906 8.40625 13.148438 8.464844 C 13.121094 8.476562 13.097656 8.492188 13.074219 8.507812 C 12.4375 8.902344 11.90625 9.410156 11.464844 10.015625 C 10.777344 10.964844 10.417969 12.046875 10.214844 13.1875 C 10.089844 13.917969 10 14.652344 9.878906 15.382812 C 9.828125 15.710938 9.746094 16.035156 9.683594 16.339844 C 9.671875 16.46875 9.699219 16.558594 9.8125 16.582031 Z M 14.054688 8.144531 C 14.054688 8.238281 14.109375 8.300781 14.207031 8.300781 C 14.304688 8.304688 14.363281 8.25 14.367188 8.148438 C 14.367188 8.046875 14.3125 7.996094 14.214844 7.984375 C 14.117188 7.992188 14.054688 8.042969 14.054688 8.144531 Z M 14.054688 8.144531 " fill-opacity="1" fill-rule="nonzero" /></g><g clip-path="url(#94ab662d28)"><g clip-path="url(#cecfc8083d)"><g clip-path="url(#e10ffb1268)"><g clip-path="url(#e80d2bfc8f)"><path fill="#000000" d="M 17.199219 6.484375 L 17.203125 6.5 C 17.203125 6.503906 17.203125 6.503906 17.203125 6.503906 L 17.261719 7.046875 L 16.734375 7.15625 C 16.734375 7.15625 16.710938 7.160156 16.699219 7.164062 C 16.671875 7.171875 16.644531 7.191406 16.628906 7.21875 C 16.605469 7.246094 16.597656 7.28125 16.597656 7.3125 L 16.601562 7.328125 C 16.605469 7.359375 16.621094 7.390625 16.648438 7.410156 C 16.675781 7.429688 16.710938 7.4375 16.742188 7.429688 L 16.746094 7.429688 C 16.746094 7.429688 17.4375 7.285156 17.441406 7.285156 C 17.46875 7.273438 17.496094 7.257812 17.515625 7.230469 C 17.535156 7.203125 17.542969 7.171875 17.542969 7.144531 C 17.542969 7.132812 17.46875 6.449219 17.46875 6.449219 L 17.464844 6.425781 C 17.460938 6.394531 17.445312 6.367188 17.417969 6.351562 C 17.394531 6.332031 17.363281 6.324219 17.335938 6.328125 C 17.324219 6.328125 17.3125 6.332031 17.300781 6.335938 C 17.273438 6.34375 17.25 6.363281 17.230469 6.390625 C 17.207031 6.417969 17.199219 6.449219 17.199219 6.480469 C 17.199219 6.484375 17.199219 6.484375 17.199219 6.484375 " fill-opacity="1" fill-rule="nonzero" /></g></g></g></g><g clip-path="url(#d2b9b0524c)"><g clip-path="url(#9b39aba8fe)"><g clip-path="url(#ab962df8ac)"><g clip-path="url(#759262c1e0)"><path fill="#000000" d="M 22.707031 11.757812 L 22.710938 11.742188 C 22.714844 11.742188 22.714844 11.742188 22.714844 11.738281 L 22.859375 11.214844 L 23.390625 11.308594 C 23.390625 11.308594 23.414062 11.316406 23.425781 11.316406 C 23.453125 11.316406 23.484375 11.308594 23.511719 11.292969 C 23.542969 11.273438 23.566406 11.246094 23.578125 11.214844 L 23.582031 11.199219 C 23.585938 11.167969 23.582031 11.136719 23.566406 11.105469 C 23.546875 11.078125 23.519531 11.058594 23.484375 11.054688 L 23.484375 11.050781 C 23.484375 11.050781 22.789062 10.925781 22.78125 10.925781 C 22.753906 10.925781 22.722656 10.933594 22.695312 10.949219 C 22.667969 10.96875 22.644531 10.992188 22.636719 11.019531 C 22.628906 11.03125 22.445312 11.691406 22.445312 11.691406 L 22.441406 11.714844 C 22.433594 11.742188 22.4375 11.777344 22.457031 11.800781 C 22.472656 11.828125 22.496094 11.84375 22.523438 11.855469 C 22.535156 11.855469 22.546875 11.859375 22.558594 11.859375 C 22.585938 11.863281 22.617188 11.855469 22.644531 11.835938 C 22.675781 11.816406 22.695312 11.789062 22.707031 11.761719 C 22.707031 11.761719 22.707031 11.757812 22.707031 11.757812 " fill-opacity="1" fill-rule="nonzero" /></g></g></g></g><g clip-path="url(#889982e53f)"><g clip-path="url(#7bfdaec270)"><g clip-path="url(#6c015a768e)"><path fill="#4d9906" d="M 8.164062 26.304688 L 9.15625 23.957031 L 10.167969 24.382812 L 9.175781 26.730469 Z M 8.164062 26.304688 " fill-opacity="1" fill-rule="nonzero" /></g></g></g><g clip-path="url(#27554c6eb1)"><g clip-path="url(#718589e24b)"><g clip-path="url(#08475a0a44)"><g clip-path="url(#2ccd9a903f)"><path fill="#000000" d="M 10.03125 26.496094 L 10.023438 26.484375 C 10.023438 26.484375 10.023438 26.480469 10.019531 26.480469 L 9.6875 26.050781 L 10.078125 25.679688 C 10.078125 25.679688 10.09375 25.667969 10.101562 25.65625 C 10.121094 25.632812 10.132812 25.605469 10.136719 25.570312 C 10.136719 25.535156 10.128906 25.5 10.109375 25.476562 L 10.101562 25.460938 C 10.078125 25.4375 10.050781 25.421875 10.015625 25.417969 C 9.984375 25.417969 9.949219 25.429688 9.925781 25.453125 C 9.925781 25.453125 9.410156 25.941406 9.40625 25.941406 C 9.386719 25.964844 9.375 25.996094 9.375 26.027344 C 9.371094 26.0625 9.378906 26.089844 9.394531 26.117188 C 9.398438 26.128906 9.824219 26.667969 9.824219 26.667969 L 9.835938 26.6875 C 9.859375 26.707031 9.886719 26.722656 9.917969 26.726562 C 9.949219 26.726562 9.976562 26.71875 10 26.703125 C 10.007812 26.695312 10.015625 26.6875 10.023438 26.679688 C 10.042969 26.65625 10.054688 26.625 10.058594 26.59375 C 10.0625 26.558594 10.050781 26.523438 10.035156 26.5 C 10.035156 26.5 10.035156 26.496094 10.03125 26.496094 " fill-opacity="1" fill-rule="nonzero" /></g></g></g></g><g clip-path="url(#73d9960f3c)"><g clip-path="url(#813b99e3fa)"><g clip-path="url(#6bc972b9d0)"><g clip-path="url(#684090d9b3)"><path fill="#000000" d="M 8.265625 24.96875 L 8.265625 24.984375 L 8.347656 25.523438 L 7.828125 25.65625 C 7.828125 25.65625 7.804688 25.660156 7.792969 25.664062 C 7.765625 25.675781 7.742188 25.695312 7.722656 25.722656 C 7.703125 25.753906 7.695312 25.789062 7.699219 25.820312 L 7.699219 25.835938 C 7.707031 25.867188 7.722656 25.894531 7.75 25.914062 C 7.78125 25.933594 7.8125 25.9375 7.847656 25.929688 C 7.847656 25.929688 8.535156 25.757812 8.539062 25.757812 C 8.566406 25.746094 8.589844 25.726562 8.609375 25.699219 C 8.628906 25.671875 8.636719 25.640625 8.636719 25.609375 C 8.636719 25.597656 8.53125 24.921875 8.53125 24.921875 L 8.527344 24.898438 C 8.519531 24.867188 8.503906 24.839844 8.476562 24.824219 C 8.453125 24.804688 8.421875 24.800781 8.394531 24.804688 C 8.382812 24.804688 8.371094 24.808594 8.359375 24.8125 C 8.332031 24.824219 8.308594 24.84375 8.289062 24.871094 C 8.269531 24.898438 8.261719 24.933594 8.265625 24.964844 C 8.265625 24.964844 8.265625 24.964844 8.265625 24.96875 " fill-opacity="1" fill-rule="nonzero" /></g></g></g></g></svg>