<svg xmlns="http://www.w3.org/2000/svg" xmlns:xlink="http://www.w3.org/1999/xlink" width="150" zoomAndPan="magnify" viewBox="0 0 112.5 112.499997" height="150" preserveAspectRatio="xMidYMid meet" version="1.0"><defs><clipPath id="99ec53ef17"><path d="M 11.199219 49.382812 L 67.746094 49.382812 L 67.746094 105.925781 L 11.199219 105.925781 Z M 11.199219 49.382812 " clip-rule="nonzero"/></clipPath><clipPath id="736e761f6d"><path d="M 39.472656 49.382812 C 23.859375 49.382812 11.199219 62.039062 11.199219 77.65625 C 11.199219 93.269531 23.859375 105.925781 39.472656 105.925781 C 55.085938 105.925781 67.746094 93.269531 67.746094 77.65625 C 67.746094 62.039062 55.085938 49.382812 39.472656 49.382812 Z M 39.472656 49.382812 " clip-rule="nonzero"/></clipPath><clipPath id="ed7e732c8c"><path d="M 44.042969 6.074219 L 100.585938 6.074219 L 100.585938 62.621094 L 44.042969 62.621094 Z M 44.042969 6.074219 " clip-rule="nonzero"/></clipPath><clipPath id="d6fb6614e1"><path d="M 72.316406 6.074219 C 56.699219 6.074219 44.042969 18.734375 44.042969 34.347656 C 44.042969 49.960938 56.699219 62.621094 72.316406 62.621094 C 87.929688 62.621094 100.585938 49.960938 100.585938 34.347656 C 100.585938 18.734375 87.929688 6.074219 72.316406 6.074219 Z M 72.316406 6.074219 " clip-rule="nonzero"/></clipPath><clipPath id="4d39277a5d"><path d="M 18.636719 19.671875 L 97.722656 19.671875 L 97.722656 98.757812 L 18.636719 98.757812 Z M 18.636719 19.671875 " clip-rule="nonzero"/></clipPath><clipPath id="9c4e7327e0"><path d="M 58.179688 19.671875 C 36.339844 19.671875 18.636719 37.375 18.636719 59.214844 C 18.636719 81.054688 36.339844 98.757812 58.179688 98.757812 C 80.015625 98.757812 97.722656 81.054688 97.722656 59.214844 C 97.722656 37.375 80.015625 19.671875 58.179688 19.671875 Z M 58.179688 19.671875 " clip-rule="nonzero"/></clipPath><clipPath id="8ba0a67628"><path d="M 18 10.558594 L 96 10.558594 L 96 101.554688 L 18 101.554688 Z M 18 10.558594 " clip-rule="nonzero"/></clipPath><clipPath id="0873eacab6"><path d="M 62 24 L 66 24 L 66 29 L 62 29 Z M 62 24 " clip-rule="nonzero"/></clipPath><clipPath id="6e3d238d2a"><path d="M 64.222656 29.9375 L 61.949219 28.289062 L 64.917969 24.195312 L 67.191406 25.847656 Z M 64.222656 29.9375 " clip-rule="nonzero"/></clipPath><clipPath id="a833673285"><path d="M 64.222656 29.9375 L 61.949219 28.289062 L 64.917969 24.195312 L 67.191406 25.847656 Z M 64.222656 29.9375 " clip-rule="nonzero"/></clipPath><clipPath id="c057637c5c"><path d="M 64.222656 29.9375 L 61.949219 28.289062 L 64.917969 24.195312 L 67.191406 25.847656 Z M 64.222656 29.9375 " clip-rule="nonzero"/></clipPath><clipPath id="da8decef7b"><path d="M 84 42 L 90 42 L 90 46 L 84 46 Z M 84 42 " clip-rule="nonzero"/></clipPath><clipPath id="e20629b5f5"><path d="M 87.824219 40.898438 L 89.316406 43.28125 L 85.03125 45.964844 L 83.539062 43.582031 Z M 87.824219 40.898438 " clip-rule="nonzero"/></clipPath><clipPath id="c7ce49de58"><path d="M 87.824219 40.898438 L 89.316406 43.28125 L 85.03125 45.964844 L 83.539062 43.582031 Z M 87.824219 40.898438 " clip-rule="nonzero"/></clipPath><clipPath id="0f4af45b58"><path d="M 87.824219 40.898438 L 89.316406 43.28125 L 85.03125 45.964844 L 83.539062 43.582031 Z M 87.824219 40.898438 " clip-rule="nonzero"/></clipPath><clipPath id="2e7b9de673"><path d="M 29 92 L 38 92 L 38 104 L 29 104 Z M 29 92 " clip-rule="nonzero"/></clipPath><clipPath id="525b1b9ab8"><path d="M 29.628906 101.480469 L 33.453125 92.417969 L 37.355469 94.0625 L 33.527344 103.128906 Z M 29.628906 101.480469 " clip-rule="nonzero"/></clipPath><clipPath id="0cd410f215"><path d="M 29.628906 101.480469 L 33.453125 92.417969 L 37.355469 94.0625 L 33.527344 103.128906 Z M 29.628906 101.480469 " clip-rule="nonzero"/></clipPath><clipPath id="b340918f35"><path d="M 34 98 L 38 98 L 38 104 L 34 104 Z M 34 98 " clip-rule="nonzero"/></clipPath><clipPath id="d994d85c09"><path d="M 34.484375 97.894531 L 37.285156 98.105469 L 36.902344 103.144531 L 34.101562 102.933594 Z M 34.484375 97.894531 " clip-rule="nonzero"/></clipPath><clipPath id="8f6631b75b"><path d="M 34.484375 97.894531 L 37.285156 98.105469 L 36.902344 103.144531 L 34.101562 102.933594 Z M 34.484375 97.894531 " clip-rule="nonzero"/></clipPath><clipPath id="a9f1abc498"><path d="M 34.484375 97.894531 L 37.285156 98.105469 L 36.902344 103.144531 L 34.101562 102.933594 Z M 34.484375 97.894531 " clip-rule="nonzero"/></clipPath><clipPath id="a426d77047"><path d="M 27 95 L 32 95 L 32 101 L 27 101 Z M 27 95 " clip-rule="nonzero"/></clipPath><clipPath id="2be305990b"><path d="M 29.953125 101.246094 L 27.613281 99.691406 L 30.414062 95.480469 L 32.75 97.035156 Z M 29.953125 101.246094 " clip-rule="nonzero"/></clipPath><clipPath id="161be37396"><path d="M 29.953125 101.246094 L 27.613281 99.691406 L 30.414062 95.480469 L 32.75 97.035156 Z M 29.953125 101.246094 " clip-rule="nonzero"/></clipPath><clipPath id="a1726a61e6"><path d="M 29.953125 101.246094 L 27.613281 99.691406 L 30.414062 95.480469 L 32.75 97.035156 Z M 29.953125 101.246094 " clip-rule="nonzero"/></clipPath></defs><g clip-path="url(#99ec53ef17)"><g clip-path="url(#736e761f6d)"><path fill="#4d9906" d="M 11.199219 49.382812 L 67.746094 49.382812 L 67.746094 105.925781 L 11.199219 105.925781 Z M 11.199219 49.382812 " fill-opacity="1" fill-rule="nonzero"/></g></g><g clip-path="url(#ed7e732c8c)"><g clip-path="url(#d6fb6614e1)"><path fill="#f2460b" d="M 44.042969 6.074219 L 100.585938 6.074219 L 100.585938 62.621094 L 44.042969 62.621094 Z M 44.042969 6.074219 " fill-opacity="1" fill-rule="nonzero"/></g></g><g clip-path="url(#4d39277a5d)"><g clip-path="url(#9c4e7327e0)"><path fill="#fea500" d="M 18.636719 19.671875 L 97.722656 19.671875 L 97.722656 98.757812 L 18.636719 98.757812 Z M 18.636719 19.671875 " fill-opacity="1" fill-rule="nonzero"/></g></g><g clip-path="url(#8ba0a67628)"><path fill="#000000" d="M 39.734375 101.378906 C 35.503906 101.433594 30.121094 99.949219 25.359375 96.5 C 23.066406 94.839844 21.023438 92.910156 19.691406 90.347656 C 18 87.085938 18.082031 83.867188 19.917969 80.699219 C 21.101562 78.648438 22.492188 76.734375 23.878906 74.828125 C 26.957031 70.589844 28.433594 65.765625 29.164062 60.671875 C 29.894531 55.570312 30.511719 50.457031 32.003906 45.496094 C 33.53125 40.410156 35.71875 35.695312 39.386719 31.785156 C 43.621094 27.265625 48.757812 24.449219 54.96875 23.792969 C 58.59375 23.410156 61.878906 24.257812 64.683594 26.683594 C 64.828125 26.808594 64.984375 26.933594 65.105469 27.078125 C 65.332031 27.359375 65.378906 27.664062 65.121094 27.953125 C 64.890625 28.21875 64.605469 28.230469 64.304688 28.070312 C 64.195312 28.011719 64.082031 27.9375 63.988281 27.851562 C 61.125 25.292969 57.753906 24.644531 54.070312 25.261719 C 46.464844 26.53125 40.9375 30.792969 36.964844 37.242188 C 34.503906 41.246094 33.222656 45.703125 32.175781 50.234375 C 31.375 53.695312 30.992188 57.222656 30.527344 60.730469 C 29.703125 66.933594 27.515625 72.558594 23.652344 77.511719 C 22.914062 78.457031 22.28125 79.488281 21.613281 80.484375 C 18.871094 84.582031 19.277344 88.445312 22.609375 92.191406 C 26.585938 96.664062 31.660156 99.148438 37.59375 99.804688 C 47 100.847656 55.335938 98.121094 62.78125 92.4375 C 69.285156 87.472656 74.660156 81.484375 79.097656 74.609375 C 82.25 69.726562 84.972656 64.667969 86.464844 59.015625 C 87.527344 55.003906 87.917969 50.949219 87.175781 46.832031 C 86.984375 45.777344 86.726562 44.734375 86.230469 43.765625 C 86.035156 43.386719 85.992188 42.988281 86.421875 42.75 C 86.84375 42.515625 87.175781 42.742188 87.382812 43.117188 C 88.101562 44.394531 88.398438 45.804688 88.605469 47.230469 C 89.332031 52.226562 88.578125 57.058594 87.03125 61.824219 C 85.207031 67.449219 82.175781 72.414062 78.910156 77.273438 C 74.042969 84.515625 68.03125 90.636719 60.789062 95.46875 C 54.9375 99.375 48.425781 101.371094 39.734375 101.378906 Z M 74.390625 31.445312 C 74.34375 31.4375 74.292969 31.425781 74.246094 31.417969 C 72.863281 30.925781 71.433594 30.863281 69.984375 30.972656 C 68.894531 31.054688 67.800781 31.171875 66.703125 31.09375 C 65.140625 30.984375 63.695312 30.597656 62.683594 29.261719 C 62.433594 28.933594 62.09375 28.773438 61.730469 29.03125 C 61.339844 29.308594 61.390625 29.695312 61.628906 30.058594 C 62.109375 30.804688 62.800781 31.308594 63.578125 31.695312 C 64.925781 32.367188 66.375 32.476562 67.847656 32.449219 C 69.09375 32.429688 70.332031 32.199219 71.578125 32.269531 C 73.558594 32.386719 75.238281 33.085938 76.488281 34.703125 C 77.46875 35.96875 78.644531 37.039062 80.027344 37.859375 C 83.234375 39.761719 86.734375 40.269531 90.394531 39.945312 C 92.070312 39.792969 93.613281 39.210938 95.066406 38.394531 C 95.949219 37.894531 96.058594 37.296875 95.472656 36.480469 C 95.386719 36.359375 95.292969 36.242188 95.191406 36.128906 C 94.078125 34.859375 93.367188 33.394531 92.964844 31.753906 C 92.585938 30.214844 92.285156 28.644531 91.621094 27.191406 C 89.675781 22.941406 85.796875 19.421875 79.597656 21.328125 C 78.765625 21.582031 78.433594 21.90625 78.625 22.34375 C 78.925781 23.015625 79.464844 22.761719 79.957031 22.625 C 81.417969 22.21875 82.898438 21.957031 84.410156 22.292969 C 86.65625 22.800781 88.238281 24.222656 89.5 26.078125 C 90.660156 27.789062 91.105469 29.761719 91.570312 31.726562 C 91.921875 33.199219 92.445312 34.59375 93.285156 35.871094 C 93.597656 36.347656 94.386719 36.792969 94.15625 37.277344 C 93.9375 37.746094 93.117188 37.871094 92.527344 38.078125 C 89.808594 39.019531 87.070312 38.84375 84.335938 38.179688 C 79.335938 36.96875 75.488281 32.761719 74.761719 27.6875 C 74.554688 26.234375 74.652344 24.78125 75.207031 23.378906 C 75.429688 23.511719 75.472656 23.714844 75.558594 23.882812 C 76.835938 26.363281 78.398438 28.636719 80.441406 30.554688 C 82.011719 32.027344 83.757812 33.214844 85.835938 33.847656 C 86.300781 33.992188 86.777344 34.046875 86.949219 33.460938 C 87.109375 32.910156 86.691406 32.699219 86.253906 32.5625 C 84.238281 31.9375 82.546875 30.785156 81.074219 29.304688 C 77.664062 25.871094 75.652344 21.675781 74.425781 17.050781 C 74.34375 16.746094 74.378906 16.457031 74.460938 16.164062 C 74.804688 14.96875 75.0625 13.75 75.292969 12.523438 C 75.363281 12.167969 75.421875 11.804688 75.457031 11.441406 C 75.496094 11.035156 75.371094 10.695312 74.917969 10.628906 C 74.476562 10.5625 74.242188 10.828125 74.15625 11.238281 C 74.113281 11.425781 74.082031 11.617188 74.046875 11.804688 C 73.210938 16.632812 71.628906 21.191406 69.128906 25.417969 C 68.484375 26.511719 67.742188 27.535156 66.90625 28.492188 C 66.59375 28.851562 66.398438 29.253906 66.824219 29.617188 C 67.25 29.976562 67.628906 29.71875 67.933594 29.367188 C 68.1875 29.074219 68.4375 28.777344 68.671875 28.472656 C 70.679688 25.832031 72.117188 22.890625 73.289062 19.808594 C 73.363281 19.613281 73.355469 19.351562 73.628906 19.21875 C 73.914062 20 74.179688 20.746094 74.464844 21.484375 C 74.558594 21.726562 74.464844 21.894531 74.347656 22.082031 C 73.890625 22.824219 73.648438 23.640625 73.503906 24.496094 C 73.113281 26.851562 73.449219 29.113281 74.375 31.300781 C 74.378906 31.347656 74.386719 31.398438 74.390625 31.445312 Z M 35.996094 63.96875 C 36.472656 64.050781 36.710938 63.753906 36.796875 63.324219 C 37.097656 61.851562 37.417969 60.382812 37.6875 58.90625 C 38.304688 55.550781 38.550781 52.136719 39.351562 48.804688 C 40.863281 42.5 43.902344 37.253906 49.566406 33.785156 C 49.945312 33.550781 50.242188 33.238281 49.980469 32.785156 C 49.703125 32.300781 49.261719 32.429688 48.855469 32.648438 C 48.757812 32.699219 48.667969 32.757812 48.578125 32.816406 C 46.117188 34.339844 44.070312 36.300781 42.371094 38.640625 C 39.707031 42.308594 38.320312 46.476562 37.546875 50.875 C 37.054688 53.6875 36.703125 56.523438 36.25 59.34375 C 36.042969 60.613281 35.734375 61.867188 35.496094 63.03125 C 35.453125 63.535156 35.542969 63.886719 35.996094 63.96875 Z M 52.351562 31.414062 C 52.347656 31.789062 52.558594 32.027344 52.945312 32.03125 C 53.324219 32.035156 53.550781 31.828125 53.554688 31.433594 C 53.5625 31.046875 53.34375 30.851562 52.96875 30.804688 C 52.59375 30.839844 52.355469 31.03125 52.351562 31.414062 Z M 52.351562 31.414062 " fill-opacity="1" fill-rule="nonzero"/><path fill="#000000" d="M 39.734375 101.378906 C 35.503906 101.433594 30.121094 99.949219 25.359375 96.5 C 23.066406 94.839844 21.023438 92.910156 19.691406 90.347656 C 18 87.085938 18.082031 83.867188 19.917969 80.699219 C 21.101562 78.648438 22.492188 76.734375 23.878906 74.828125 C 26.957031 70.589844 28.433594 65.765625 29.164062 60.671875 C 29.894531 55.570312 30.511719 50.457031 32.003906 45.496094 C 33.53125 40.410156 35.71875 35.695312 39.386719 31.785156 C 43.621094 27.265625 48.757812 24.449219 54.96875 23.792969 C 58.59375 23.410156 61.878906 24.257812 64.683594 26.683594 C 64.828125 26.808594 64.984375 26.933594 65.105469 27.078125 C 65.332031 27.359375 65.378906 27.664062 65.121094 27.953125 C 64.890625 28.21875 64.605469 28.230469 64.304688 28.070312 C 64.195312 28.011719 64.082031 27.9375 63.988281 27.851562 C 61.125 25.292969 57.753906 24.644531 54.070312 25.261719 C 46.464844 26.53125 40.9375 30.792969 36.964844 37.242188 C 34.503906 41.246094 33.222656 45.703125 32.175781 50.234375 C 31.375 53.695312 30.992188 57.222656 30.527344 60.730469 C 29.703125 66.933594 27.515625 72.558594 23.652344 77.511719 C 22.914062 78.457031 22.28125 79.488281 21.613281 80.484375 C 18.871094 84.582031 19.277344 88.445312 22.609375 92.191406 C 26.585938 96.664062 31.660156 99.148438 37.59375 99.804688 C 47 100.847656 55.335938 98.121094 62.78125 92.4375 C 69.285156 87.472656 74.660156 81.484375 79.097656 74.609375 C 82.25 69.726562 84.972656 64.667969 86.464844 59.015625 C 87.527344 55.003906 87.917969 50.949219 87.175781 46.832031 C 86.984375 45.777344 86.726562 44.734375 86.230469 43.765625 C 86.035156 43.386719 85.992188 42.988281 86.421875 42.75 C 86.84375 42.515625 87.175781 42.742188 87.382812 43.117188 C 88.101562 44.394531 88.398438 45.804688 88.605469 47.230469 C 89.332031 52.226562 88.578125 57.058594 87.03125 61.824219 C 85.207031 67.449219 82.175781 72.414062 78.910156 77.273438 C 74.042969 84.515625 68.03125 90.636719 60.789062 95.46875 C 54.9375 99.375 48.425781 101.371094 39.734375 101.378906 Z M 74.390625 31.445312 C 74.34375 31.4375 74.292969 31.425781 74.246094 31.417969 C 72.863281 30.925781 71.433594 30.863281 69.984375 30.972656 C 68.894531 31.054688 67.800781 31.171875 66.703125 31.09375 C 65.140625 30.984375 63.695312 30.597656 62.683594 29.261719 C 62.433594 28.933594 62.09375 28.773438 61.730469 29.03125 C 61.339844 29.308594 61.390625 29.695312 61.628906 30.058594 C 62.109375 30.804688 62.800781 31.308594 63.578125 31.695312 C 64.925781 32.367188 66.375 32.476562 67.847656 32.449219 C 69.09375 32.429688 70.332031 32.199219 71.578125 32.269531 C 73.558594 32.386719 75.238281 33.085938 76.488281 34.703125 C 77.46875 35.96875 78.644531 37.039062 80.027344 37.859375 C 83.234375 39.761719 86.734375 40.269531 90.394531 39.945312 C 92.070312 39.792969 93.613281 39.210938 95.066406 38.394531 C 95.949219 37.894531 96.058594 37.296875 95.472656 36.480469 C 95.386719 36.359375 95.292969 36.242188 95.191406 36.128906 C 94.078125 34.859375 93.367188 33.394531 92.964844 31.753906 C 92.585938 30.214844 92.285156 28.644531 91.621094 27.191406 C 89.675781 22.941406 85.796875 19.421875 79.597656 21.328125 C 78.765625 21.582031 78.433594 21.90625 78.625 22.34375 C 78.925781 23.015625 79.464844 22.761719 79.957031 22.625 C 81.417969 22.21875 82.898438 21.957031 84.410156 22.292969 C 86.65625 22.800781 88.238281 24.222656 89.5 26.078125 C 90.660156 27.789062 91.105469 29.761719 91.570312 31.726562 C 91.921875 33.199219 92.445312 34.59375 93.285156 35.871094 C 93.597656 36.347656 94.386719 36.792969 94.15625 37.277344 C 93.9375 37.746094 93.117188 37.871094 92.527344 38.078125 C 89.808594 39.019531 87.070312 38.84375 84.335938 38.179688 C 79.335938 36.96875 75.488281 32.761719 74.761719 27.6875 C 74.554688 26.234375 74.652344 24.78125 75.207031 23.378906 C 75.429688 23.511719 75.472656 23.714844 75.558594 23.882812 C 76.835938 26.363281 78.398438 28.636719 80.441406 30.554688 C 82.011719 32.027344 83.757812 33.214844 85.835938 33.847656 C 86.300781 33.992188 86.777344 34.046875 86.949219 33.460938 C 87.109375 32.910156 86.691406 32.699219 86.253906 32.5625 C 84.238281 31.9375 82.546875 30.785156 81.074219 29.304688 C 77.664062 25.871094 75.652344 21.675781 74.425781 17.050781 C 74.34375 16.746094 74.378906 16.457031 74.460938 16.164062 C 74.804688 14.96875 75.0625 13.75 75.292969 12.523438 C 75.363281 12.167969 75.421875 11.804688 75.457031 11.441406 C 75.496094 11.035156 75.371094 10.695312 74.917969 10.628906 C 74.476562 10.5625 74.242188 10.828125 74.15625 11.238281 C 74.113281 11.425781 74.082031 11.617188 74.046875 11.804688 C 73.210938 16.632812 71.628906 21.191406 69.128906 25.417969 C 68.484375 26.511719 67.742188 27.535156 66.90625 28.492188 C 66.59375 28.851562 66.398438 29.253906 66.824219 29.617188 C 67.25 29.976562 67.628906 29.71875 67.933594 29.367188 C 68.1875 29.074219 68.4375 28.777344 68.671875 28.472656 C 70.679688 25.832031 72.117188 22.890625 73.289062 19.808594 C 73.363281 19.613281 73.355469 19.351562 73.628906 19.21875 C 73.914062 20 74.179688 20.746094 74.464844 21.484375 C 74.558594 21.726562 74.464844 21.894531 74.347656 22.082031 C 73.890625 22.824219 73.648438 23.640625 73.503906 24.496094 C 73.113281 26.851562 73.449219 29.113281 74.375 31.300781 C 74.378906 31.347656 74.386719 31.398438 74.390625 31.445312 Z M 35.996094 63.96875 C 36.472656 64.050781 36.710938 63.753906 36.796875 63.324219 C 37.097656 61.851562 37.417969 60.382812 37.6875 58.90625 C 38.304688 55.550781 38.550781 52.136719 39.351562 48.804688 C 40.863281 42.5 43.902344 37.253906 49.566406 33.785156 C 49.945312 33.550781 50.242188 33.238281 49.980469 32.785156 C 49.703125 32.300781 49.261719 32.429688 48.855469 32.648438 C 48.757812 32.699219 48.667969 32.757812 48.578125 32.816406 C 46.117188 34.339844 44.070312 36.300781 42.371094 38.640625 C 39.707031 42.308594 38.320312 46.476562 37.546875 50.875 C 37.054688 53.6875 36.703125 56.523438 36.25 59.34375 C 36.042969 60.613281 35.734375 61.867188 35.496094 63.03125 C 35.453125 63.535156 35.542969 63.886719 35.996094 63.96875 Z M 52.351562 31.414062 C 52.347656 31.789062 52.558594 32.027344 52.945312 32.03125 C 53.324219 32.035156 53.550781 31.828125 53.554688 31.433594 C 53.5625 31.046875 53.34375 30.851562 52.96875 30.804688 C 52.59375 30.839844 52.355469 31.03125 52.351562 31.414062 Z M 52.351562 31.414062 " fill-opacity="1" fill-rule="nonzero"/></g><g clip-path="url(#0873eacab6)"><g clip-path="url(#6e3d238d2a)"><g clip-path="url(#a833673285)"><g clip-path="url(#c057637c5c)"><path fill="#000000" d="M 64.488281 25.019531 L 64.492188 25.078125 C 64.496094 25.085938 64.496094 25.089844 64.496094 25.09375 L 64.726562 27.183594 L 62.695312 27.605469 C 62.691406 27.605469 62.605469 27.621094 62.5625 27.632812 C 62.5625 27.632812 62.5625 27.632812 62.558594 27.636719 C 62.453125 27.671875 62.351562 27.742188 62.277344 27.84375 C 62.195312 27.957031 62.160156 28.089844 62.167969 28.214844 L 62.171875 28.277344 C 62.191406 28.398438 62.257812 28.511719 62.359375 28.585938 C 62.464844 28.664062 62.597656 28.6875 62.722656 28.664062 L 62.730469 28.664062 C 62.730469 28.664062 65.40625 28.109375 65.421875 28.105469 C 65.527344 28.066406 65.628906 27.996094 65.703125 27.894531 C 65.777344 27.789062 65.816406 27.671875 65.816406 27.558594 C 65.816406 27.511719 65.523438 24.878906 65.523438 24.878906 L 65.511719 24.792969 C 65.492188 24.675781 65.429688 24.570312 65.328125 24.496094 C 65.234375 24.429688 65.125 24.402344 65.011719 24.410156 C 64.96875 24.414062 64.925781 24.421875 64.882812 24.4375 C 64.777344 24.472656 64.675781 24.546875 64.601562 24.648438 C 64.519531 24.757812 64.484375 24.886719 64.488281 25.007812 C 64.488281 25.011719 64.488281 25.015625 64.488281 25.019531 " fill-opacity="1" fill-rule="nonzero"/></g></g></g></g><g clip-path="url(#da8decef7b)"><g clip-path="url(#e20629b5f5)"><g clip-path="url(#c7ce49de58)"><g clip-path="url(#0f4af45b58)"><path fill="#000000" d="M 85.738281 45.363281 L 85.753906 45.304688 C 85.757812 45.300781 85.757812 45.292969 85.757812 45.289062 L 86.328125 43.265625 L 88.371094 43.632812 C 88.371094 43.632812 88.457031 43.652344 88.5 43.65625 C 88.503906 43.65625 88.503906 43.65625 88.503906 43.65625 C 88.617188 43.664062 88.738281 43.632812 88.84375 43.566406 C 88.964844 43.492188 89.046875 43.382812 89.085938 43.265625 L 89.105469 43.207031 C 89.128906 43.085938 89.113281 42.957031 89.046875 42.851562 C 88.976562 42.738281 88.863281 42.667969 88.738281 42.640625 L 88.730469 42.636719 C 88.730469 42.636719 86.042969 42.152344 86.027344 42.152344 C 85.914062 42.144531 85.792969 42.175781 85.683594 42.242188 C 85.578125 42.308594 85.5 42.40625 85.457031 42.511719 C 85.4375 42.550781 84.726562 45.105469 84.726562 45.105469 L 84.703125 45.191406 C 84.679688 45.304688 84.699219 45.429688 84.761719 45.53125 C 84.824219 45.628906 84.917969 45.699219 85.023438 45.730469 C 85.066406 45.742188 85.109375 45.75 85.152344 45.753906 C 85.269531 45.761719 85.386719 45.730469 85.496094 45.664062 C 85.613281 45.59375 85.691406 45.488281 85.734375 45.375 C 85.734375 45.371094 85.738281 45.367188 85.738281 45.363281 " fill-opacity="1" fill-rule="nonzero"/></g></g></g></g><g clip-path="url(#2e7b9de673)"><g clip-path="url(#525b1b9ab8)"><g clip-path="url(#0cd410f215)"><path fill="#4d9906" d="M 29.628906 101.480469 L 33.453125 92.417969 L 37.355469 94.0625 L 33.527344 103.128906 Z M 29.628906 101.480469 " fill-opacity="1" fill-rule="nonzero"/></g></g></g><g clip-path="url(#b340918f35)"><g clip-path="url(#d994d85c09)"><g clip-path="url(#8f6631b75b)"><g clip-path="url(#a9f1abc498)"><path fill="#000000" d="M 36.839844 102.21875 L 36.800781 102.171875 C 36.800781 102.167969 36.796875 102.164062 36.792969 102.160156 L 35.5 100.503906 L 37.007812 99.074219 C 37.007812 99.074219 37.074219 99.015625 37.105469 98.984375 C 37.105469 98.980469 37.105469 98.980469 37.105469 98.980469 C 37.179688 98.890625 37.226562 98.78125 37.234375 98.652344 C 37.246094 98.511719 37.207031 98.382812 37.136719 98.277344 L 37.097656 98.230469 C 37.015625 98.136719 36.90625 98.074219 36.777344 98.066406 C 36.644531 98.054688 36.523438 98.101562 36.425781 98.1875 L 36.421875 98.195312 C 36.421875 98.195312 36.421875 98.191406 36.421875 98.191406 C 36.421875 98.191406 34.4375 100.070312 34.425781 100.082031 C 34.351562 100.171875 34.304688 100.285156 34.296875 100.410156 C 34.285156 100.539062 34.316406 100.65625 34.375 100.753906 C 34.398438 100.792969 36.03125 102.882812 36.03125 102.882812 L 36.085938 102.949219 C 36.167969 103.039062 36.273438 103.09375 36.398438 103.105469 C 36.511719 103.113281 36.621094 103.078125 36.710938 103.011719 C 36.746094 102.984375 36.777344 102.957031 36.808594 102.921875 C 36.878906 102.832031 36.929688 102.71875 36.9375 102.59375 C 36.949219 102.457031 36.914062 102.332031 36.84375 102.230469 C 36.84375 102.226562 36.839844 102.222656 36.839844 102.21875 " fill-opacity="1" fill-rule="nonzero"/></g></g></g></g><g clip-path="url(#a426d77047)"><g clip-path="url(#2be305990b)"><g clip-path="url(#161be37396)"><g clip-path="url(#a1726a61e6)"><path fill="#000000" d="M 30.015625 96.320312 L 30.023438 96.378906 C 30.027344 96.386719 30.027344 96.390625 30.027344 96.394531 L 30.34375 98.472656 L 28.328125 98.980469 C 28.328125 98.980469 28.242188 98.996094 28.199219 99.011719 C 28.09375 99.054688 27.996094 99.128906 27.925781 99.234375 C 27.847656 99.351562 27.816406 99.484375 27.828125 99.609375 L 27.835938 99.671875 C 27.863281 99.792969 27.929688 99.902344 28.035156 99.972656 C 28.144531 100.042969 28.277344 100.0625 28.402344 100.035156 L 28.410156 100.035156 C 28.410156 100.035156 31.058594 99.371094 31.074219 99.363281 C 31.179688 99.324219 31.277344 99.246094 31.347656 99.140625 C 31.417969 99.035156 31.453125 98.917969 31.449219 98.800781 C 31.445312 98.757812 31.042969 96.136719 31.042969 96.136719 L 31.03125 96.050781 C 31.003906 95.933594 30.9375 95.832031 30.835938 95.761719 C 30.738281 95.699219 30.625 95.675781 30.515625 95.691406 C 30.472656 95.695312 30.429688 95.707031 30.386719 95.722656 C 30.28125 95.761719 30.183594 95.839844 30.113281 95.945312 C 30.039062 96.058594 30.007812 96.1875 30.015625 96.308594 C 30.015625 96.3125 30.015625 96.316406 30.015625 96.320312 " fill-opacity="1" fill-rule="nonzero"/></g></g></g></g></svg>