<svg xmlns="http://www.w3.org/2000/svg" xmlns:xlink="http://www.w3.org/1999/xlink" width="500" zoomAndPan="magnify" viewBox="0 0 375 374.999991" height="500" preserveAspectRatio="xMidYMid meet" version="1.0"><defs><g/><clipPath id="f012410654"><path d="M 98.960938 139.328125 L 217.011719 139.328125 L 217.011719 257.382812 L 98.960938 257.382812 Z M 98.960938 139.328125 " clip-rule="nonzero"/></clipPath><clipPath id="42aff42617"><path d="M 157.988281 139.328125 C 125.386719 139.328125 98.960938 165.757812 98.960938 198.355469 C 98.960938 230.953125 125.386719 257.382812 157.988281 257.382812 C 190.585938 257.382812 217.011719 230.953125 217.011719 198.355469 C 217.011719 165.757812 190.585938 139.328125 157.988281 139.328125 Z M 157.988281 139.328125 " clip-rule="nonzero"/></clipPath><clipPath id="3bf13aa499"><path d="M 157.988281 44.5 L 276.039062 44.5 L 276.039062 162.550781 L 157.988281 162.550781 Z M 157.988281 44.5 " clip-rule="nonzero"/></clipPath><clipPath id="581955e4fd"><path d="M 217.011719 44.5 C 184.414062 44.5 157.988281 70.925781 157.988281 103.523438 C 157.988281 136.125 184.414062 162.550781 217.011719 162.550781 C 249.613281 162.550781 276.039062 136.125 276.039062 103.523438 C 276.039062 70.925781 249.613281 44.5 217.011719 44.5 Z M 217.011719 44.5 " clip-rule="nonzero"/></clipPath><clipPath id="c1b2206ed8"><path d="M 122.964844 88.835938 L 241.019531 88.835938 L 241.019531 206.886719 L 122.964844 206.886719 Z M 122.964844 88.835938 " clip-rule="nonzero"/></clipPath><clipPath id="94840f316a"><path d="M 181.992188 88.835938 C 149.394531 88.835938 122.964844 115.261719 122.964844 147.859375 C 122.964844 180.460938 149.394531 206.886719 181.992188 206.886719 C 214.589844 206.886719 241.019531 180.460938 241.019531 147.859375 C 241.019531 115.261719 214.589844 88.835938 181.992188 88.835938 Z M 181.992188 88.835938 " clip-rule="nonzero"/></clipPath><clipPath id="1d4b9def43"><path d="M 109 62.378906 L 255 62.378906 L 255 233.378906 L 109 233.378906 Z M 109 62.378906 " clip-rule="nonzero"/></clipPath><clipPath id="0033555313"><path d="M 191 87 L 199 87 L 199 97 L 191 97 Z M 191 87 " clip-rule="nonzero"/></clipPath><clipPath id="3d671929c0"><path d="M 195.539062 98.832031 L 190.683594 95.304688 L 196.410156 87.417969 L 201.265625 90.941406 Z M 195.539062 98.832031 " clip-rule="nonzero"/></clipPath><clipPath id="a644563fdb"><path d="M 195.539062 98.832031 L 190.683594 95.304688 L 196.410156 87.417969 L 201.265625 90.941406 Z M 195.539062 98.832031 " clip-rule="nonzero"/></clipPath><clipPath id="9c322eaa31"><path d="M 195.539062 98.832031 L 190.683594 95.304688 L 196.410156 87.417969 L 201.265625 90.941406 Z M 195.539062 98.832031 " clip-rule="nonzero"/></clipPath><clipPath id="86e029bc26"><path d="M 234 121 L 243 121 L 243 130 L 234 130 Z M 234 121 " clip-rule="nonzero"/></clipPath><clipPath id="912cb79cac"><path d="M 239.941406 119.453125 L 243.125 124.539062 L 234.863281 129.714844 L 231.679688 124.628906 Z M 239.941406 119.453125 " clip-rule="nonzero"/></clipPath><clipPath id="4ab21dd5aa"><path d="M 239.941406 119.453125 L 243.125 124.539062 L 234.863281 129.714844 L 231.679688 124.628906 Z M 239.941406 119.453125 " clip-rule="nonzero"/></clipPath><clipPath id="dde3d63ce6"><path d="M 239.941406 119.453125 L 243.125 124.539062 L 234.863281 129.714844 L 231.679688 124.628906 Z M 239.941406 119.453125 " clip-rule="nonzero"/></clipPath><clipPath id="912cc159cf"><path d="M 128 212 L 148 212 L 148 243 L 128 243 Z M 128 212 " clip-rule="nonzero"/></clipPath><clipPath id="5d7fcbe314"><path d="M 128.066406 239.128906 L 139.386719 212.300781 L 147.566406 215.75 L 136.242188 242.582031 Z M 128.066406 239.128906 " clip-rule="nonzero"/></clipPath><clipPath id="b0084990ad"><path d="M 128.066406 239.128906 L 139.386719 212.300781 L 147.566406 215.75 L 136.242188 242.582031 Z M 128.066406 239.128906 " clip-rule="nonzero"/></clipPath><clipPath id="72c4cdee3d"><path d="M 139 227 L 146 227 L 146 237 L 139 237 Z M 139 227 " clip-rule="nonzero"/></clipPath><clipPath id="722bd7e7bf"><path d="M 139.597656 226.664062 L 145.582031 227.113281 L 144.847656 236.835938 L 138.863281 236.386719 Z M 139.597656 226.664062 " clip-rule="nonzero"/></clipPath><clipPath id="96ebb0e290"><path d="M 139.597656 226.664062 L 145.582031 227.113281 L 144.847656 236.835938 L 138.863281 236.386719 Z M 139.597656 226.664062 " clip-rule="nonzero"/></clipPath><clipPath id="d82789fb53"><path d="M 139.597656 226.664062 L 145.582031 227.113281 L 144.847656 236.835938 L 138.863281 236.386719 Z M 139.597656 226.664062 " clip-rule="nonzero"/></clipPath><clipPath id="a2377498bc"><path d="M 126 221 L 134 221 L 134 231 L 126 231 Z M 126 221 " clip-rule="nonzero"/></clipPath><clipPath id="41a035e56d"><path d="M 131.074219 232.972656 L 126.078125 229.652344 L 131.476562 221.53125 L 136.472656 224.855469 Z M 131.074219 232.972656 " clip-rule="nonzero"/></clipPath><clipPath id="ba17518c13"><path d="M 131.074219 232.972656 L 126.078125 229.652344 L 131.476562 221.53125 L 136.472656 224.855469 Z M 131.074219 232.972656 " clip-rule="nonzero"/></clipPath><clipPath id="1d673230d9"><path d="M 131.074219 232.972656 L 126.078125 229.652344 L 131.476562 221.53125 L 136.472656 224.855469 Z M 131.074219 232.972656 " clip-rule="nonzero"/></clipPath></defs><g clip-path="url(#f012410654)"><g clip-path="url(#42aff42617)"><path fill="#4d9906" d="M 98.960938 139.328125 L 217.011719 139.328125 L 217.011719 257.382812 L 98.960938 257.382812 Z M 98.960938 139.328125 " fill-opacity="1" fill-rule="nonzero"/></g></g><g clip-path="url(#3bf13aa499)"><g clip-path="url(#581955e4fd)"><path fill="#f2460b" d="M 157.988281 44.5 L 276.039062 44.5 L 276.039062 162.550781 L 157.988281 162.550781 Z M 157.988281 44.5 " fill-opacity="1" fill-rule="nonzero"/></g></g><g clip-path="url(#c1b2206ed8)"><g clip-path="url(#94840f316a)"><path fill="#fea500" d="M 122.964844 88.835938 L 241.019531 88.835938 L 241.019531 206.886719 L 122.964844 206.886719 Z M 122.964844 88.835938 " fill-opacity="1" fill-rule="nonzero"/></g></g><g fill="#000000" fill-opacity="1"><g transform="translate(50.935042, 300.993818)"><g><path d="M 9.589844 1.234375 L 18.847656 -20.441406 L 16.5625 -20.441406 L 9.589844 -3.96875 L 2.585938 -20.441406 L 0.300781 -20.441406 Z M 9.589844 1.234375 "/></g></g></g><g fill="#000000" fill-opacity="1"><g transform="translate(73.088432, 300.993818)"><g><path d="M 5.5625 -7.515625 L 9.289062 -16.921875 L 12.984375 -7.515625 Z M 18.246094 0 L 9.289062 -21.855469 L 0.300781 0 L 2.585938 0 L 4.78125 -5.5625 L 13.765625 -5.5625 L 15.960938 0 Z M 18.246094 0 "/></g></g></g><g fill="#000000" fill-opacity="1"><g transform="translate(94.640653, 300.993818)"><g><path d="M 4.359375 -2.105469 L 4.359375 -20.441406 L 2.253906 -20.441406 L 2.253906 0 L 11.664062 0 L 11.664062 -2.105469 Z M 4.359375 -2.105469 "/></g></g></g><g fill="#000000" fill-opacity="1"><g transform="translate(109.910626, 300.993818)"><g><path d="M 4.359375 0 L 4.359375 -20.441406 L 2.253906 -20.441406 L 2.253906 0 Z M 4.359375 0 "/></g></g></g><g fill="#000000" fill-opacity="1"><g transform="translate(119.529579, 300.993818)"><g><path d="M 20.261719 -10.28125 C 20.261719 -7.9375 19.417969 -5.953125 17.796875 -4.328125 C 16.140625 -2.675781 14.160156 -1.863281 11.84375 -1.863281 C 9.527344 -1.863281 7.546875 -2.675781 5.921875 -4.328125 C 4.269531 -5.953125 3.457031 -7.9375 3.457031 -10.28125 C 3.457031 -12.566406 4.269531 -14.550781 5.921875 -16.203125 C 7.546875 -17.824219 9.527344 -18.667969 11.84375 -18.667969 C 14.160156 -18.667969 16.140625 -17.824219 17.796875 -16.203125 C 19.417969 -14.550781 20.261719 -12.566406 20.261719 -10.28125 Z M 22.363281 -10.28125 C 22.363281 -11.722656 22.0625 -13.074219 21.523438 -14.367188 C 20.980469 -15.632812 20.230469 -16.742188 19.269531 -17.707031 C 18.304688 -18.636719 17.195312 -19.390625 15.933594 -19.929688 C 14.640625 -20.472656 13.285156 -20.769531 11.84375 -20.769531 C 10.402344 -20.769531 9.019531 -20.472656 7.753906 -19.929688 C 6.492188 -19.390625 5.378906 -18.636719 4.417969 -17.707031 C 3.457031 -16.742188 2.707031 -15.632812 2.164062 -14.367188 C 1.625 -13.074219 1.351562 -11.722656 1.351562 -10.28125 C 1.351562 -8.835938 1.625 -7.453125 2.164062 -6.191406 C 2.707031 -4.898438 3.457031 -3.789062 4.417969 -2.824219 C 5.378906 -1.863281 6.492188 -1.113281 7.753906 -0.570312 C 9.019531 -0.03125 10.402344 0.242188 11.84375 0.242188 C 13.285156 0.242188 14.640625 -0.03125 15.933594 -0.570312 C 17.195312 -1.113281 18.304688 -1.863281 19.269531 -2.824219 C 20.230469 -3.789062 20.980469 -4.898438 21.523438 -6.191406 C 22.0625 -7.453125 22.363281 -8.835938 22.363281 -10.28125 Z M 22.363281 -10.28125 "/></g></g></g><g fill="#000000" fill-opacity="1"><g transform="translate(146.251886, 300.993818)"><g><path d="M 7.90625 -9.621094 C 10.550781 -8.988281 12.355469 -8.296875 13.316406 -7.515625 C 13.976562 -6.972656 14.308594 -6.28125 14.308594 -5.441406 C 14.308594 -4.597656 14.128906 -3.90625 13.765625 -3.425781 C 12.867188 -2.164062 11.242188 -1.53125 8.957031 -1.53125 C 5.773438 -1.53125 3.96875 -2.613281 3.578125 -4.78125 L 1.113281 -4.78125 C 1.832031 -1.324219 4.449219 0.390625 8.957031 0.390625 C 10.972656 0.390625 12.65625 -0.03125 14.007812 -0.933594 C 15.632812 -1.984375 16.472656 -3.546875 16.472656 -5.589844 C 16.472656 -7.273438 15.8125 -8.566406 14.488281 -9.46875 C 13.558594 -10.128906 12.054688 -10.730469 9.980469 -11.273438 C 7.875 -11.8125 6.523438 -12.265625 5.890625 -12.59375 C 4.507812 -13.285156 3.816406 -14.25 3.847656 -15.511719 C 3.847656 -16.171875 3.96875 -16.742188 4.269531 -17.164062 C 5.050781 -18.335938 6.433594 -18.9375 8.417969 -18.9375 C 11.210938 -18.9375 12.804688 -18.035156 13.226562 -16.292969 L 15.511719 -16.292969 C 14.757812 -19.238281 12.382812 -20.742188 8.417969 -20.742188 C 6.613281 -20.742188 5.019531 -20.261719 3.699219 -19.296875 C 2.34375 -18.335938 1.652344 -16.921875 1.652344 -15 C 1.652344 -12.382812 3.757812 -10.582031 7.90625 -9.621094 Z M 7.90625 -9.621094 "/></g></g></g><g fill="#000000" fill-opacity="1"><g transform="translate(166.511584, 300.993818)"><g><path d="M 20.261719 -10.28125 C 20.261719 -7.9375 19.417969 -5.953125 17.796875 -4.328125 C 16.140625 -2.675781 14.160156 -1.863281 11.84375 -1.863281 C 9.527344 -1.863281 7.546875 -2.675781 5.921875 -4.328125 C 4.269531 -5.953125 3.457031 -7.9375 3.457031 -10.28125 C 3.457031 -12.566406 4.269531 -14.550781 5.921875 -16.203125 C 7.546875 -17.824219 9.527344 -18.667969 11.84375 -18.667969 C 14.160156 -18.667969 16.140625 -17.824219 17.796875 -16.203125 C 19.417969 -14.550781 20.261719 -12.566406 20.261719 -10.28125 Z M 22.363281 -10.28125 C 22.363281 -11.722656 22.0625 -13.074219 21.523438 -14.367188 C 20.980469 -15.632812 20.230469 -16.742188 19.269531 -17.707031 C 18.304688 -18.636719 17.195312 -19.390625 15.933594 -19.929688 C 14.640625 -20.472656 13.285156 -20.769531 11.84375 -20.769531 C 10.402344 -20.769531 9.019531 -20.472656 7.753906 -19.929688 C 6.492188 -19.390625 5.378906 -18.636719 4.417969 -17.707031 C 3.457031 -16.742188 2.707031 -15.632812 2.164062 -14.367188 C 1.625 -13.074219 1.351562 -11.722656 1.351562 -10.28125 C 1.351562 -8.835938 1.625 -7.453125 2.164062 -6.191406 C 2.707031 -4.898438 3.457031 -3.789062 4.417969 -2.824219 C 5.378906 -1.863281 6.492188 -1.113281 7.753906 -0.570312 C 9.019531 -0.03125 10.402344 0.242188 11.84375 0.242188 C 13.285156 0.242188 14.640625 -0.03125 15.933594 -0.570312 C 17.195312 -1.113281 18.304688 -1.863281 19.269531 -2.824219 C 20.230469 -3.789062 20.980469 -4.898438 21.523438 -6.191406 C 22.0625 -7.453125 22.363281 -8.835938 22.363281 -10.28125 Z M 22.363281 -10.28125 "/></g></g></g><g fill="#000000" fill-opacity="1"><g transform="translate(193.233891, 300.993818)"><g/></g></g><g fill="#000000" fill-opacity="1"><g transform="translate(204.355774, 300.993818)"><g><path d="M 21.101562 0 L 23.238281 0 L 18.488281 -21.792969 L 11.785156 -4.296875 L 5.082031 -21.792969 L 0.300781 0 L 2.464844 0 L 5.621094 -14.550781 L 11.785156 1.203125 L 17.914062 -14.550781 Z M 21.101562 0 "/></g></g></g><g fill="#000000" fill-opacity="1"><g transform="translate(230.897722, 300.993818)"><g><path d="M 5.5625 -7.515625 L 9.289062 -16.921875 L 12.984375 -7.515625 Z M 18.246094 0 L 9.289062 -21.855469 L 0.300781 0 L 2.585938 0 L 4.78125 -5.5625 L 13.765625 -5.5625 L 15.960938 0 Z M 18.246094 0 "/></g></g></g><g fill="#000000" fill-opacity="1"><g transform="translate(252.449944, 300.993818)"><g><path d="M 4.359375 -15.058594 L 15.839844 1.261719 L 15.839844 -20.441406 L 13.738281 -20.441406 L 13.738281 -5.410156 L 2.253906 -21.734375 L 2.253906 0 L 4.359375 0 Z M 4.359375 -15.058594 "/></g></g></g><g fill="#000000" fill-opacity="1"><g transform="translate(273.551292, 300.993818)"><g><path d="M 22.425781 -9.558594 L 11.785156 -9.558594 L 11.785156 -7.726562 L 20.082031 -7.726562 C 19.449219 -5.953125 18.398438 -4.507812 16.894531 -3.457031 C 15.390625 -2.375 13.707031 -1.863281 11.875 -1.863281 C 9.527344 -1.863281 7.546875 -2.675781 5.890625 -4.328125 C 4.269531 -5.980469 3.457031 -7.996094 3.457031 -10.3125 C 3.457031 -12.625 4.269531 -14.609375 5.921875 -16.261719 C 7.546875 -17.886719 9.527344 -18.726562 11.875 -18.726562 C 13.617188 -18.726562 15.210938 -18.214844 16.625 -17.222656 C 18.066406 -16.230469 19.089844 -14.941406 19.75 -13.285156 L 21.972656 -13.285156 C 21.28125 -15.542969 19.988281 -17.34375 18.125 -18.726562 C 16.261719 -20.109375 14.097656 -20.832031 11.664062 -20.832031 C 10.339844 -20.832031 9.046875 -20.53125 7.785156 -19.988281 C 6.492188 -19.449219 5.378906 -18.699219 4.417969 -17.734375 C 3.457031 -16.773438 2.707031 -15.660156 2.164062 -14.398438 C 1.625 -13.105469 1.351562 -11.722656 1.351562 -10.28125 C 1.351562 -8.835938 1.625 -7.453125 2.164062 -6.191406 C 2.707031 -4.898438 3.457031 -3.789062 4.417969 -2.824219 C 5.378906 -1.863281 6.492188 -1.113281 7.785156 -0.570312 C 9.046875 -0.03125 10.429688 0.242188 11.875 0.242188 C 14.339844 0.242188 16.5625 -0.542969 18.546875 -2.132812 C 20.53125 -3.757812 21.761719 -5.800781 22.214844 -8.296875 Z M 22.425781 -9.558594 "/></g></g></g><g fill="#000000" fill-opacity="1"><g transform="translate(300.333715, 300.993818)"><g><path d="M 20.261719 -10.28125 C 20.261719 -7.9375 19.417969 -5.953125 17.796875 -4.328125 C 16.140625 -2.675781 14.160156 -1.863281 11.84375 -1.863281 C 9.527344 -1.863281 7.546875 -2.675781 5.921875 -4.328125 C 4.269531 -5.953125 3.457031 -7.9375 3.457031 -10.28125 C 3.457031 -12.566406 4.269531 -14.550781 5.921875 -16.203125 C 7.546875 -17.824219 9.527344 -18.667969 11.84375 -18.667969 C 14.160156 -18.667969 16.140625 -17.824219 17.796875 -16.203125 C 19.417969 -14.550781 20.261719 -12.566406 20.261719 -10.28125 Z M 22.363281 -10.28125 C 22.363281 -11.722656 22.0625 -13.074219 21.523438 -14.367188 C 20.980469 -15.632812 20.230469 -16.742188 19.269531 -17.707031 C 18.304688 -18.636719 17.195312 -19.390625 15.933594 -19.929688 C 14.640625 -20.472656 13.285156 -20.769531 11.84375 -20.769531 C 10.402344 -20.769531 9.019531 -20.472656 7.753906 -19.929688 C 6.492188 -19.390625 5.378906 -18.636719 4.417969 -17.707031 C 3.457031 -16.742188 2.707031 -15.632812 2.164062 -14.367188 C 1.625 -13.074219 1.351562 -11.722656 1.351562 -10.28125 C 1.351562 -8.835938 1.625 -7.453125 2.164062 -6.191406 C 2.707031 -4.898438 3.457031 -3.789062 4.417969 -2.824219 C 5.378906 -1.863281 6.492188 -1.113281 7.753906 -0.570312 C 9.019531 -0.03125 10.402344 0.242188 11.84375 0.242188 C 13.285156 0.242188 14.640625 -0.03125 15.933594 -0.570312 C 17.195312 -1.113281 18.304688 -1.863281 19.269531 -2.824219 C 20.230469 -3.789062 20.980469 -4.898438 21.523438 -6.191406 C 22.0625 -7.453125 22.363281 -8.835938 22.363281 -10.28125 Z M 22.363281 -10.28125 "/></g></g></g><g fill="#000000" fill-opacity="1"><g transform="translate(125.910107, 324.421179)"><g><path d="M 3.359375 0.121094 C 4.890625 0.121094 6.136719 -0.796875 6.136719 -2.371094 C 6.136719 -5.429688 1.753906 -4.679688 1.753906 -6.824219 C 1.753906 -7.726562 2.488281 -8.160156 3.328125 -8.160156 C 4.019531 -8.160156 4.589844 -7.875 4.949219 -7.363281 L 5.699219 -7.996094 C 5.203125 -8.625 4.335938 -9.121094 3.300781 -9.121094 C 1.921875 -9.121094 0.796875 -8.21875 0.796875 -6.75 C 0.796875 -3.855469 5.175781 -4.574219 5.175781 -2.339844 C 5.175781 -1.378906 4.378906 -0.839844 3.375 -0.839844 C 2.355469 -0.839844 1.621094 -1.394531 1.304688 -2.21875 L 0.433594 -1.710938 C 0.898438 -0.601562 2.023438 0.121094 3.359375 0.121094 Z M 3.359375 0.121094 "/></g></g></g><g fill="#000000" fill-opacity="1"><g transform="translate(132.480102, 324.421179)"><g><path d="M 1.679688 -7.125 C 2.023438 -7.125 2.324219 -7.410156 2.324219 -7.753906 C 2.324219 -8.128906 2.023438 -8.398438 1.679688 -8.398438 C 1.320312 -8.398438 1.019531 -8.128906 1.019531 -7.753906 C 1.019531 -7.410156 1.320312 -7.125 1.679688 -7.125 Z M 1.214844 0 L 2.144531 0 L 2.144531 -6 L 1.214844 -6 Z M 1.214844 0 "/></g></g></g><g fill="#000000" fill-opacity="1"><g transform="translate(135.825095, 324.421179)"><g><path d="M 3.855469 -5.101562 L 3.855469 -6 L 2.25 -6 L 2.25 -8.609375 L 1.320312 -8.609375 L 1.320312 -6 L 0.316406 -6 L 0.316406 -5.101562 L 1.320312 -5.101562 L 1.320312 -1.574219 C 1.320312 -0.628906 2.113281 0.121094 3.046875 0.121094 C 3.34375 0.121094 3.675781 0.03125 3.839844 -0.0742188 L 3.839844 -0.78125 L 3.148438 -0.78125 C 2.671875 -0.78125 2.25 -1.140625 2.25 -1.695312 L 2.25 -5.101562 Z M 3.855469 -5.101562 "/></g></g></g><g fill="#000000" fill-opacity="1"><g transform="translate(140.175086, 324.421179)"><g><path d="M 1.679688 -7.125 C 2.023438 -7.125 2.324219 -7.410156 2.324219 -7.753906 C 2.324219 -8.128906 2.023438 -8.398438 1.679688 -8.398438 C 1.320312 -8.398438 1.019531 -8.128906 1.019531 -7.753906 C 1.019531 -7.410156 1.320312 -7.125 1.679688 -7.125 Z M 1.214844 0 L 2.144531 0 L 2.144531 -6 L 1.214844 -6 Z M 1.214844 0 "/></g></g></g><g fill="#000000" fill-opacity="1"><g transform="translate(143.520079, 324.421179)"><g><path d="M 3.796875 0.121094 C 5.519531 0.121094 6.914062 -1.273438 6.914062 -3 C 6.914062 -4.726562 5.519531 -6.121094 3.796875 -6.121094 C 2.070312 -6.121094 0.675781 -4.726562 0.675781 -3 C 0.675781 -1.273438 2.070312 0.121094 3.796875 0.121094 Z M 3.796875 -0.808594 C 2.578125 -0.808594 1.605469 -1.785156 1.605469 -3 C 1.605469 -4.214844 2.578125 -5.191406 3.796875 -5.191406 C 4.996094 -5.191406 5.984375 -4.214844 5.984375 -3 C 5.984375 -1.785156 4.996094 -0.808594 3.796875 -0.808594 Z M 3.796875 -0.808594 "/></g></g></g><g fill="#000000" fill-opacity="1"><g transform="translate(151.110075, 324.421179)"><g/></g></g><g fill="#000000" fill-opacity="1"><g transform="translate(154.725069, 324.421179)"><g><path d="M 8.488281 -6 L 6.898438 -1.078125 L 5.265625 -6 L 4.378906 -6 L 2.746094 -1.109375 L 1.183594 -6 L 0.136719 -6 L 2.203125 0 L 3.226562 0 L 4.828125 -4.710938 L 6.421875 0 L 7.441406 0 L 9.496094 -6 Z M 8.488281 -6 "/></g></g></g><g fill="#000000" fill-opacity="1"><g transform="translate(164.355054, 324.421179)"><g><path d="M 6.914062 -3.058594 C 6.871094 -4.785156 5.503906 -6.121094 3.796875 -6.121094 C 2.070312 -6.121094 0.675781 -4.726562 0.675781 -3 C 0.675781 -1.273438 2.070312 0.121094 3.796875 0.121094 C 5.21875 0.121094 6.40625 -0.824219 6.796875 -2.113281 L 5.804688 -2.113281 C 5.476562 -1.335938 4.695312 -0.808594 3.796875 -0.808594 C 2.609375 -0.808594 1.664062 -1.710938 1.605469 -2.863281 L 6.898438 -2.863281 Z M 3.796875 -5.191406 C 4.753906 -5.191406 5.566406 -4.574219 5.851562 -3.703125 L 1.726562 -3.703125 C 2.023438 -4.574219 2.835938 -5.191406 3.796875 -5.191406 Z M 3.796875 -5.191406 "/></g></g></g><g fill="#000000" fill-opacity="1"><g transform="translate(171.885049, 324.421179)"><g><path d="M 4.214844 -6.121094 C 3.359375 -6.121094 2.59375 -5.773438 2.023438 -5.21875 L 2.023438 -11.039062 L 1.09375 -11.039062 L 1.09375 0 L 2.023438 0 L 2.023438 -0.78125 C 2.59375 -0.226562 3.359375 0.121094 4.214844 0.121094 C 5.941406 0.121094 7.335938 -1.273438 7.335938 -3 C 7.335938 -4.726562 5.941406 -6.121094 4.214844 -6.121094 Z M 4.214844 -0.808594 C 3 -0.808594 2.023438 -1.785156 2.023438 -3 C 2.023438 -4.214844 3 -5.191406 4.214844 -5.191406 C 5.429688 -5.191406 6.40625 -4.214844 6.40625 -3 C 6.40625 -1.785156 5.429688 -0.808594 4.214844 -0.808594 Z M 4.214844 -0.808594 "/></g></g></g><g fill="#000000" fill-opacity="1"><g transform="translate(179.895043, 324.421179)"><g/></g></g><g fill="#000000" fill-opacity="1"><g transform="translate(183.510037, 324.421179)"><g><path d="M 5.984375 -11.039062 L 5.984375 -5.21875 C 5.414062 -5.773438 4.648438 -6.121094 3.796875 -6.121094 C 2.070312 -6.121094 0.675781 -4.726562 0.675781 -3 C 0.675781 -1.273438 2.070312 0.121094 3.796875 0.121094 C 4.648438 0.121094 5.414062 -0.226562 5.984375 -0.78125 L 5.984375 0 L 6.914062 0 L 6.914062 -11.039062 Z M 3.796875 -0.808594 C 2.578125 -0.808594 1.605469 -1.785156 1.605469 -3 C 1.605469 -4.214844 2.578125 -5.191406 3.796875 -5.191406 C 4.996094 -5.191406 5.984375 -4.214844 5.984375 -3 C 5.984375 -1.785156 4.996094 -0.808594 3.796875 -0.808594 Z M 3.796875 -0.808594 "/></g></g></g><g fill="#000000" fill-opacity="1"><g transform="translate(191.520031, 324.421179)"><g><path d="M 6.914062 -3.058594 C 6.871094 -4.785156 5.503906 -6.121094 3.796875 -6.121094 C 2.070312 -6.121094 0.675781 -4.726562 0.675781 -3 C 0.675781 -1.273438 2.070312 0.121094 3.796875 0.121094 C 5.21875 0.121094 6.40625 -0.824219 6.796875 -2.113281 L 5.804688 -2.113281 C 5.476562 -1.335938 4.695312 -0.808594 3.796875 -0.808594 C 2.609375 -0.808594 1.664062 -1.710938 1.605469 -2.863281 L 6.898438 -2.863281 Z M 3.796875 -5.191406 C 4.753906 -5.191406 5.566406 -4.574219 5.851562 -3.703125 L 1.726562 -3.703125 C 2.023438 -4.574219 2.835938 -5.191406 3.796875 -5.191406 Z M 3.796875 -5.191406 "/></g></g></g><g fill="#000000" fill-opacity="1"><g transform="translate(199.050025, 324.421179)"><g/></g></g><g fill="#000000" fill-opacity="1"><g transform="translate(202.665019, 324.421179)"><g><path d="M 6.074219 -9 L 0.136719 -9 L 0.136719 -8.039062 L 2.625 -8.039062 L 2.625 0 L 3.585938 0 L 3.585938 -8.039062 L 6.074219 -8.039062 Z M 6.074219 -9 "/></g></g></g><g fill="#000000" fill-opacity="1"><g transform="translate(208.875018, 324.421179)"><g><path d="M 4.019531 -6.121094 C 3.164062 -6.121094 2.476562 -5.746094 2.023438 -5.144531 L 2.023438 -6 L 1.09375 -6 L 1.09375 0 L 2.023438 0 L 2.023438 -3.253906 C 2.023438 -4.351562 2.925781 -5.191406 4.019531 -5.191406 C 4.199219 -5.191406 4.351562 -5.175781 4.484375 -5.128906 L 4.484375 -6.074219 C 4.351562 -6.105469 4.199219 -6.121094 4.019531 -6.121094 Z M 4.019531 -6.121094 "/></g></g></g><g fill="#000000" fill-opacity="1"><g transform="translate(213.435019, 324.421179)"><g><path d="M 3.148438 0.121094 C 4.484375 0.121094 5.398438 -0.765625 5.398438 -2.160156 L 5.398438 -6 L 4.484375 -6 L 4.484375 -2.265625 C 4.484375 -1.363281 3.929688 -0.808594 3.148438 -0.808594 C 2.386719 -0.808594 1.816406 -1.363281 1.816406 -2.265625 L 1.816406 -6 L 0.898438 -6 L 0.898438 -2.160156 C 0.898438 -0.765625 1.800781 0.121094 3.148438 0.121094 Z M 3.148438 0.121094 "/></g></g></g><g fill="#000000" fill-opacity="1"><g transform="translate(219.72001, 324.421179)"><g><path d="M 6.914062 -3.058594 C 6.871094 -4.785156 5.503906 -6.121094 3.796875 -6.121094 C 2.070312 -6.121094 0.675781 -4.726562 0.675781 -3 C 0.675781 -1.273438 2.070312 0.121094 3.796875 0.121094 C 5.21875 0.121094 6.40625 -0.824219 6.796875 -2.113281 L 5.804688 -2.113281 C 5.476562 -1.335938 4.695312 -0.808594 3.796875 -0.808594 C 2.609375 -0.808594 1.664062 -1.710938 1.605469 -2.863281 L 6.898438 -2.863281 Z M 3.796875 -5.191406 C 4.753906 -5.191406 5.566406 -4.574219 5.851562 -3.703125 L 1.726562 -3.703125 C 2.023438 -4.574219 2.835938 -5.191406 3.796875 -5.191406 Z M 3.796875 -5.191406 "/></g></g></g><g fill="#000000" fill-opacity="1"><g transform="translate(227.250005, 324.421179)"><g><path d="M 7.816406 2.699219 C 7.335938 2.699219 6.914062 2.339844 6.914062 1.785156 L 6.914062 -6 L 5.984375 -6 L 5.984375 -5.21875 C 5.414062 -5.773438 4.648438 -6.121094 3.796875 -6.121094 C 2.070312 -6.121094 0.675781 -4.726562 0.675781 -3 C 0.675781 -1.273438 2.070312 0.121094 3.796875 0.121094 C 4.648438 0.121094 5.414062 -0.226562 5.984375 -0.78125 L 5.984375 1.90625 C 5.984375 2.851562 6.78125 3.601562 7.710938 3.601562 C 7.949219 3.601562 8.191406 3.554688 8.371094 3.480469 L 8.371094 2.699219 Z M 3.796875 -0.808594 C 2.578125 -0.808594 1.605469 -1.785156 1.605469 -3 C 1.605469 -4.214844 2.578125 -5.191406 3.796875 -5.191406 C 4.996094 -5.191406 5.984375 -4.214844 5.984375 -3 C 5.984375 -1.785156 4.996094 -0.808594 3.796875 -0.808594 Z M 3.796875 -0.808594 "/></g></g></g><g fill="#000000" fill-opacity="1"><g transform="translate(235.259999, 324.421179)"><g><path d="M 3.148438 0.121094 C 4.484375 0.121094 5.398438 -0.765625 5.398438 -2.160156 L 5.398438 -6 L 4.484375 -6 L 4.484375 -2.265625 C 4.484375 -1.363281 3.929688 -0.808594 3.148438 -0.808594 C 2.386719 -0.808594 1.816406 -1.363281 1.816406 -2.265625 L 1.816406 -6 L 0.898438 -6 L 0.898438 -2.160156 C 0.898438 -0.765625 1.800781 0.121094 3.148438 0.121094 Z M 3.148438 0.121094 "/></g></g></g><g fill="#000000" fill-opacity="1"><g transform="translate(241.544991, 324.421179)"><g><path d="M 6.914062 -3.058594 C 6.871094 -4.785156 5.503906 -6.121094 3.796875 -6.121094 C 2.070312 -6.121094 0.675781 -4.726562 0.675781 -3 C 0.675781 -1.273438 2.070312 0.121094 3.796875 0.121094 C 5.21875 0.121094 6.40625 -0.824219 6.796875 -2.113281 L 5.804688 -2.113281 C 5.476562 -1.335938 4.695312 -0.808594 3.796875 -0.808594 C 2.609375 -0.808594 1.664062 -1.710938 1.605469 -2.863281 L 6.898438 -2.863281 Z M 3.796875 -5.191406 C 4.753906 -5.191406 5.566406 -4.574219 5.851562 -3.703125 L 1.726562 -3.703125 C 2.023438 -4.574219 2.835938 -5.191406 3.796875 -5.191406 Z M 3.796875 -5.191406 "/></g></g></g><g clip-path="url(#1d4b9def43)"><path fill="#000000" d="M 149.476562 233.261719 C 141.515625 233.367188 131.390625 230.574219 122.4375 224.085938 C 118.125 220.964844 114.28125 217.332031 111.777344 212.503906 C 108.59375 206.371094 108.75 200.316406 112.199219 194.351562 C 114.425781 190.496094 117.042969 186.894531 119.652344 183.304688 C 125.445312 175.328125 128.21875 166.257812 129.589844 156.667969 C 130.964844 147.070312 132.125 137.449219 134.933594 128.109375 C 137.808594 118.546875 141.921875 109.675781 148.816406 102.3125 C 156.78125 93.808594 166.441406 88.515625 178.128906 87.277344 C 184.941406 86.554688 191.125 88.152344 196.394531 92.714844 C 196.671875 92.953125 196.960938 93.183594 197.1875 93.460938 C 197.621094 93.988281 197.703125 94.5625 197.222656 95.105469 C 196.785156 95.601562 196.246094 95.628906 195.6875 95.328125 C 195.476562 95.210938 195.269531 95.078125 195.089844 94.917969 C 189.703125 90.105469 183.363281 88.878906 176.433594 90.039062 C 162.132812 92.429688 151.730469 100.449219 144.265625 112.585938 C 139.632812 120.117188 137.226562 128.503906 135.253906 137.03125 C 133.75 143.539062 133.027344 150.175781 132.152344 156.78125 C 130.609375 168.457031 126.496094 179.035156 119.222656 188.355469 C 117.835938 190.136719 116.644531 192.070312 115.386719 193.953125 C 110.234375 201.65625 111 208.925781 117.261719 215.976562 C 124.742188 224.394531 134.285156 229.066406 145.445312 230.304688 C 163.140625 232.265625 178.8125 227.136719 192.816406 216.441406 C 205.050781 207.101562 215.160156 195.832031 223.507812 182.894531 C 229.433594 173.703125 234.554688 164.191406 237.367188 153.554688 C 239.363281 146.003906 240.097656 138.371094 238.699219 130.628906 C 238.339844 128.644531 237.855469 126.679688 236.917969 124.859375 C 236.554688 124.148438 236.476562 123.398438 237.28125 122.949219 C 238.078125 122.503906 238.699219 122.929688 239.09375 123.636719 C 240.441406 126.039062 241 128.699219 241.390625 131.375 C 242.753906 140.777344 241.339844 149.875 238.433594 158.839844 C 235 169.421875 229.296875 178.761719 223.152344 187.910156 C 214 201.539062 202.695312 213.050781 189.074219 222.148438 C 178.070312 229.496094 165.816406 233.25 149.476562 233.261719 Z M 214.65625 101.675781 C 214.5625 101.660156 214.472656 101.640625 214.382812 101.625 C 211.78125 100.695312 209.089844 100.578125 206.371094 100.785156 C 204.316406 100.9375 202.261719 101.164062 200.199219 101.019531 C 197.253906 100.808594 194.539062 100.078125 192.632812 97.566406 C 192.167969 96.949219 191.527344 96.648438 190.84375 97.136719 C 190.105469 97.65625 190.207031 98.386719 190.648438 99.070312 C 191.554688 100.46875 192.851562 101.417969 194.316406 102.148438 C 196.851562 103.410156 199.578125 103.617188 202.347656 103.570312 C 204.691406 103.527344 207.019531 103.09375 209.367188 103.230469 C 213.085938 103.449219 216.246094 104.765625 218.597656 107.808594 C 220.441406 110.191406 222.65625 112.207031 225.253906 113.746094 C 231.289062 117.324219 237.871094 118.277344 244.75 117.667969 C 247.90625 117.386719 250.804688 116.289062 253.539062 114.75 C 255.203125 113.8125 255.40625 112.691406 254.304688 111.15625 C 254.140625 110.925781 253.964844 110.703125 253.777344 110.488281 C 251.683594 108.101562 250.34375 105.34375 249.585938 102.261719 C 248.875 99.363281 248.3125 96.410156 247.0625 93.671875 C 243.402344 85.675781 236.109375 79.050781 224.445312 82.636719 C 222.882812 83.121094 222.253906 83.726562 222.621094 84.550781 C 223.179688 85.816406 224.199219 85.335938 225.125 85.082031 C 227.875 84.320312 230.65625 83.820312 233.496094 84.457031 C 237.726562 85.40625 240.703125 88.082031 243.070312 91.578125 C 245.253906 94.800781 246.089844 98.511719 246.964844 102.207031 C 247.625 104.980469 248.609375 107.601562 250.1875 110 C 250.78125 110.902344 252.261719 111.738281 251.832031 112.652344 C 251.417969 113.53125 249.871094 113.769531 248.765625 114.152344 C 243.652344 115.929688 238.503906 115.597656 233.359375 114.347656 C 223.957031 112.066406 216.722656 104.15625 215.355469 94.605469 C 214.964844 91.871094 215.148438 89.140625 216.191406 86.5 C 216.609375 86.75 216.6875 87.128906 216.847656 87.445312 C 219.253906 92.113281 222.195312 96.390625 226.039062 100 C 228.984375 102.769531 232.269531 105.003906 236.183594 106.199219 C 237.058594 106.464844 237.953125 106.570312 238.273438 105.46875 C 238.574219 104.433594 237.792969 104.035156 236.96875 103.78125 C 233.171875 102.605469 229.992188 100.433594 227.222656 97.644531 C 220.8125 91.1875 217.027344 83.289062 214.71875 74.59375 C 214.570312 74.019531 214.632812 73.476562 214.789062 72.925781 C 215.4375 70.671875 215.917969 68.378906 216.351562 66.074219 C 216.480469 65.402344 216.59375 64.722656 216.660156 64.039062 C 216.734375 63.277344 216.496094 62.636719 215.648438 62.507812 C 214.8125 62.382812 214.375 62.878906 214.210938 63.652344 C 214.132812 64.007812 214.074219 64.367188 214.011719 64.722656 C 212.4375 73.808594 209.457031 82.382812 204.761719 90.335938 C 203.546875 92.390625 202.148438 94.320312 200.574219 96.121094 C 199.988281 96.792969 199.621094 97.554688 200.425781 98.234375 C 201.222656 98.910156 201.933594 98.429688 202.511719 97.761719 C 202.984375 97.214844 203.457031 96.660156 203.898438 96.082031 C 207.675781 91.117188 210.375 85.578125 212.585938 79.777344 C 212.726562 79.410156 212.710938 78.921875 213.222656 78.671875 C 213.757812 80.140625 214.253906 81.546875 214.792969 82.933594 C 214.96875 83.390625 214.792969 83.703125 214.574219 84.054688 C 213.714844 85.453125 213.257812 86.992188 212.988281 88.601562 C 212.25 93.035156 212.886719 97.289062 214.625 101.402344 C 214.636719 101.496094 214.644531 101.585938 214.65625 101.675781 Z M 142.441406 162.871094 C 143.339844 163.03125 143.78125 162.46875 143.949219 161.660156 C 144.515625 158.890625 145.113281 156.128906 145.625 153.347656 C 146.785156 147.03125 147.25 140.605469 148.753906 134.339844 C 151.597656 122.480469 157.308594 112.605469 167.960938 106.074219 C 168.679688 105.636719 169.238281 105.046875 168.746094 104.199219 C 168.21875 103.285156 167.394531 103.527344 166.625 103.941406 C 166.445312 104.039062 166.277344 104.148438 166.105469 104.253906 C 161.480469 107.125 157.628906 110.8125 154.429688 115.21875 C 149.417969 122.113281 146.808594 129.960938 145.359375 138.238281 C 144.433594 143.53125 143.773438 148.867188 142.917969 154.171875 C 142.53125 156.5625 141.953125 158.921875 141.5 161.109375 C 141.421875 162.054688 141.59375 162.71875 142.441406 162.871094 Z M 173.203125 101.617188 C 173.195312 102.324219 173.589844 102.769531 174.320312 102.777344 C 175.03125 102.785156 175.453125 102.394531 175.46875 101.65625 C 175.480469 100.921875 175.070312 100.554688 174.367188 100.472656 C 173.660156 100.535156 173.210938 100.894531 173.203125 101.617188 Z M 173.203125 101.617188 " fill-opacity="1" fill-rule="nonzero"/><path fill="#000000" d="M 149.476562 233.261719 C 141.515625 233.367188 131.390625 230.574219 122.4375 224.085938 C 118.125 220.964844 114.28125 217.332031 111.777344 212.503906 C 108.59375 206.371094 108.75 200.316406 112.199219 194.351562 C 114.425781 190.496094 117.042969 186.894531 119.652344 183.304688 C 125.445312 175.328125 128.21875 166.257812 129.589844 156.667969 C 130.964844 147.070312 132.125 137.449219 134.933594 128.109375 C 137.808594 118.546875 141.921875 109.675781 148.816406 102.3125 C 156.78125 93.808594 166.441406 88.515625 178.128906 87.277344 C 184.941406 86.554688 191.125 88.152344 196.394531 92.714844 C 196.671875 92.953125 196.960938 93.183594 197.1875 93.460938 C 197.621094 93.988281 197.703125 94.5625 197.222656 95.105469 C 196.785156 95.601562 196.246094 95.628906 195.6875 95.328125 C 195.476562 95.210938 195.269531 95.078125 195.089844 94.917969 C 189.703125 90.105469 183.363281 88.878906 176.433594 90.039062 C 162.132812 92.429688 151.730469 100.449219 144.265625 112.585938 C 139.632812 120.117188 137.226562 128.503906 135.253906 137.03125 C 133.75 143.539062 133.027344 150.175781 132.152344 156.78125 C 130.609375 168.457031 126.496094 179.035156 119.222656 188.355469 C 117.835938 190.136719 116.644531 192.070312 115.386719 193.953125 C 110.234375 201.65625 111 208.925781 117.261719 215.976562 C 124.742188 224.394531 134.285156 229.066406 145.445312 230.304688 C 163.140625 232.265625 178.8125 227.136719 192.816406 216.441406 C 205.050781 207.101562 215.160156 195.832031 223.507812 182.894531 C 229.433594 173.703125 234.554688 164.191406 237.367188 153.554688 C 239.363281 146.003906 240.097656 138.371094 238.699219 130.628906 C 238.339844 128.644531 237.855469 126.679688 236.917969 124.859375 C 236.554688 124.148438 236.476562 123.398438 237.28125 122.949219 C 238.078125 122.503906 238.699219 122.929688 239.09375 123.636719 C 240.441406 126.039062 241 128.699219 241.390625 131.375 C 242.753906 140.777344 241.339844 149.875 238.433594 158.839844 C 235 169.421875 229.296875 178.761719 223.152344 187.910156 C 214 201.539062 202.695312 213.050781 189.074219 222.148438 C 178.070312 229.496094 165.816406 233.25 149.476562 233.261719 Z M 214.65625 101.675781 C 214.5625 101.660156 214.472656 101.640625 214.382812 101.625 C 211.78125 100.695312 209.089844 100.578125 206.371094 100.785156 C 204.316406 100.9375 202.261719 101.164062 200.199219 101.019531 C 197.253906 100.808594 194.539062 100.078125 192.632812 97.566406 C 192.167969 96.949219 191.527344 96.648438 190.84375 97.136719 C 190.105469 97.65625 190.207031 98.386719 190.648438 99.070312 C 191.554688 100.46875 192.851562 101.417969 194.316406 102.148438 C 196.851562 103.410156 199.578125 103.617188 202.347656 103.570312 C 204.691406 103.527344 207.019531 103.09375 209.367188 103.230469 C 213.085938 103.449219 216.246094 104.765625 218.597656 107.808594 C 220.441406 110.191406 222.65625 112.207031 225.253906 113.746094 C 231.289062 117.324219 237.871094 118.277344 244.75 117.667969 C 247.90625 117.386719 250.804688 116.289062 253.539062 114.75 C 255.203125 113.8125 255.40625 112.691406 254.304688 111.15625 C 254.140625 110.925781 253.964844 110.703125 253.777344 110.488281 C 251.683594 108.101562 250.34375 105.34375 249.585938 102.261719 C 248.875 99.363281 248.3125 96.410156 247.0625 93.671875 C 243.402344 85.675781 236.109375 79.050781 224.445312 82.636719 C 222.882812 83.121094 222.253906 83.726562 222.621094 84.550781 C 223.179688 85.816406 224.199219 85.335938 225.125 85.082031 C 227.875 84.320312 230.65625 83.820312 233.496094 84.457031 C 237.726562 85.40625 240.703125 88.082031 243.070312 91.578125 C 245.253906 94.800781 246.089844 98.511719 246.964844 102.207031 C 247.625 104.980469 248.609375 107.601562 250.1875 110 C 250.78125 110.902344 252.261719 111.738281 251.832031 112.652344 C 251.417969 113.53125 249.871094 113.769531 248.765625 114.152344 C 243.652344 115.929688 238.503906 115.597656 233.359375 114.347656 C 223.957031 112.066406 216.722656 104.15625 215.355469 94.605469 C 214.964844 91.871094 215.148438 89.140625 216.191406 86.5 C 216.609375 86.75 216.6875 87.128906 216.847656 87.445312 C 219.253906 92.113281 222.195312 96.390625 226.039062 100 C 228.984375 102.769531 232.269531 105.003906 236.183594 106.199219 C 237.058594 106.464844 237.953125 106.570312 238.273438 105.46875 C 238.574219 104.433594 237.792969 104.035156 236.96875 103.78125 C 233.171875 102.605469 229.992188 100.433594 227.222656 97.644531 C 220.8125 91.1875 217.027344 83.289062 214.71875 74.59375 C 214.570312 74.019531 214.632812 73.476562 214.789062 72.925781 C 215.4375 70.671875 215.917969 68.378906 216.351562 66.074219 C 216.480469 65.402344 216.59375 64.722656 216.660156 64.039062 C 216.734375 63.277344 216.496094 62.636719 215.648438 62.507812 C 214.8125 62.382812 214.375 62.878906 214.210938 63.652344 C 214.132812 64.007812 214.074219 64.367188 214.011719 64.722656 C 212.4375 73.808594 209.457031 82.382812 204.761719 90.335938 C 203.546875 92.390625 202.148438 94.320312 200.574219 96.121094 C 199.988281 96.792969 199.621094 97.554688 200.425781 98.234375 C 201.222656 98.910156 201.933594 98.429688 202.511719 97.761719 C 202.984375 97.214844 203.457031 96.660156 203.898438 96.082031 C 207.675781 91.117188 210.375 85.578125 212.585938 79.777344 C 212.726562 79.410156 212.710938 78.921875 213.222656 78.671875 C 213.757812 80.140625 214.253906 81.546875 214.792969 82.933594 C 214.96875 83.390625 214.792969 83.703125 214.574219 84.054688 C 213.714844 85.453125 213.257812 86.992188 212.988281 88.601562 C 212.25 93.035156 212.886719 97.289062 214.625 101.402344 C 214.636719 101.496094 214.644531 101.585938 214.65625 101.675781 Z M 142.441406 162.871094 C 143.339844 163.03125 143.78125 162.46875 143.949219 161.660156 C 144.515625 158.890625 145.113281 156.128906 145.625 153.347656 C 146.785156 147.03125 147.25 140.605469 148.753906 134.339844 C 151.597656 122.480469 157.308594 112.605469 167.960938 106.074219 C 168.679688 105.636719 169.238281 105.046875 168.746094 104.199219 C 168.21875 103.285156 167.394531 103.527344 166.625 103.941406 C 166.445312 104.039062 166.277344 104.148438 166.105469 104.253906 C 161.480469 107.125 157.628906 110.8125 154.429688 115.21875 C 149.417969 122.113281 146.808594 129.960938 145.359375 138.238281 C 144.433594 143.53125 143.773438 148.867188 142.917969 154.171875 C 142.53125 156.5625 141.953125 158.921875 141.5 161.109375 C 141.421875 162.054688 141.59375 162.71875 142.441406 162.871094 Z M 173.203125 101.617188 C 173.195312 102.324219 173.589844 102.769531 174.320312 102.777344 C 175.03125 102.785156 175.453125 102.394531 175.46875 101.65625 C 175.480469 100.921875 175.070312 100.554688 174.367188 100.472656 C 173.660156 100.535156 173.210938 100.894531 173.203125 101.617188 Z M 173.203125 101.617188 " fill-opacity="1" fill-rule="nonzero"/></g><g clip-path="url(#0033555313)"><g clip-path="url(#3d671929c0)"><g clip-path="url(#a644563fdb)"><g clip-path="url(#9c322eaa31)"><path fill="#000000" d="M 195.601562 89.019531 L 195.621094 89.140625 C 195.621094 89.148438 195.625 89.15625 195.628906 89.167969 L 196.308594 93.371094 L 192.152344 94.019531 C 192.152344 94.019531 191.96875 94.035156 191.886719 94.058594 C 191.882812 94.058594 191.882812 94.058594 191.878906 94.0625 C 191.660156 94.125 191.460938 94.257812 191.320312 94.453125 C 191.160156 94.671875 191.097656 94.933594 191.125 95.183594 L 191.144531 95.304688 C 191.199219 95.550781 191.339844 95.78125 191.558594 95.941406 C 191.789062 96.109375 192.058594 96.167969 192.316406 96.140625 L 192.332031 96.136719 C 192.332031 96.136719 197.804688 95.292969 197.832031 95.28125 C 198.054688 95.21875 198.253906 95.085938 198.398438 94.886719 C 198.542969 94.691406 198.605469 94.457031 198.597656 94.230469 C 198.59375 94.140625 197.726562 88.839844 197.726562 88.839844 L 197.699219 88.664062 C 197.636719 88.429688 197.5 88.210938 197.285156 88.054688 C 197.085938 87.910156 196.851562 87.84375 196.625 87.851562 C 196.535156 87.855469 196.449219 87.867188 196.363281 87.894531 C 196.140625 87.957031 195.941406 88.089844 195.796875 88.289062 C 195.640625 88.5 195.582031 88.75 195.601562 88.992188 C 195.601562 89 195.601562 89.011719 195.601562 89.019531 " fill-opacity="1" fill-rule="nonzero"/></g></g></g></g><g clip-path="url(#86e029bc26)"><g clip-path="url(#912cb79cac)"><g clip-path="url(#4ab21dd5aa)"><g clip-path="url(#dde3d63ce6)"><path fill="#000000" d="M 236.214844 128.53125 L 236.242188 128.410156 C 236.242188 128.402344 236.242188 128.394531 236.242188 128.382812 L 237.183594 124.230469 L 241.28125 125.183594 C 241.28125 125.183594 241.457031 125.238281 241.542969 125.246094 C 241.546875 125.246094 241.546875 125.246094 241.550781 125.246094 C 241.777344 125.269531 242.011719 125.21875 242.21875 125.089844 C 242.449219 124.945312 242.601562 124.726562 242.671875 124.484375 L 242.699219 124.367188 C 242.742188 124.117188 242.695312 123.851562 242.550781 123.621094 C 242.402344 123.382812 242.171875 123.222656 241.921875 123.15625 L 241.90625 123.152344 C 241.90625 123.148438 241.90625 123.148438 241.90625 123.148438 C 241.90625 123.148438 236.515625 121.890625 236.484375 121.886719 C 236.257812 121.863281 236.023438 121.910156 235.816406 122.042969 C 235.605469 122.171875 235.460938 122.363281 235.382812 122.578125 C 235.351562 122.660156 234.175781 127.902344 234.175781 127.902344 L 234.136719 128.074219 C 234.105469 128.316406 234.152344 128.570312 234.292969 128.792969 C 234.421875 129.003906 234.613281 129.152344 234.828125 129.230469 C 234.914062 129.261719 235 129.28125 235.085938 129.289062 C 235.316406 129.316406 235.550781 129.265625 235.761719 129.136719 C 235.980469 128.996094 236.132812 128.789062 236.203125 128.554688 C 236.207031 128.546875 236.210938 128.539062 236.214844 128.53125 " fill-opacity="1" fill-rule="nonzero"/></g></g></g></g><g clip-path="url(#912cc159cf)"><g clip-path="url(#5d7fcbe314)"><g clip-path="url(#b0084990ad)"><path fill="#4d9906" d="M 128.066406 239.128906 L 139.386719 212.300781 L 147.566406 215.75 L 136.242188 242.582031 Z M 128.066406 239.128906 " fill-opacity="1" fill-rule="nonzero"/></g></g></g><g clip-path="url(#72c4cdee3d)"><g clip-path="url(#722bd7e7bf)"><g clip-path="url(#96ebb0e290)"><g clip-path="url(#d82789fb53)"><path fill="#000000" d="M 144.695312 235.046875 L 144.617188 234.957031 C 144.609375 234.949219 144.601562 234.945312 144.59375 234.9375 L 141.808594 231.714844 L 145.003906 228.984375 C 145.007812 228.984375 145.152344 228.875 145.210938 228.808594 C 145.214844 228.808594 145.214844 228.804688 145.214844 228.804688 C 145.367188 228.636719 145.46875 228.417969 145.488281 228.175781 C 145.507812 227.90625 145.421875 227.652344 145.269531 227.449219 L 145.1875 227.359375 C 145.011719 227.175781 144.773438 227.054688 144.5 227.035156 C 144.21875 227.011719 143.957031 227.101562 143.753906 227.265625 L 143.738281 227.277344 C 143.738281 227.273438 143.738281 227.273438 143.738281 227.273438 C 143.738281 227.273438 139.527344 230.867188 139.507812 230.890625 C 139.355469 231.058594 139.253906 231.277344 139.234375 231.523438 C 139.214844 231.765625 139.285156 231.996094 139.410156 232.1875 C 139.460938 232.261719 142.980469 236.316406 142.980469 236.316406 L 143.097656 236.449219 C 143.273438 236.621094 143.503906 236.734375 143.765625 236.753906 C 144.015625 236.773438 144.246094 236.703125 144.4375 236.578125 C 144.511719 236.53125 144.578125 236.472656 144.640625 236.40625 C 144.792969 236.238281 144.894531 236.019531 144.914062 235.773438 C 144.933594 235.511719 144.855469 235.265625 144.710938 235.070312 C 144.707031 235.0625 144.703125 235.054688 144.695312 235.046875 " fill-opacity="1" fill-rule="nonzero"/></g></g></g></g><g clip-path="url(#a2377498bc)"><g clip-path="url(#41a035e56d)"><g clip-path="url(#ba17518c13)"><g clip-path="url(#1d673230d9)"><path fill="#000000" d="M 130.730469 223.167969 L 130.753906 223.285156 C 130.757812 223.296875 130.761719 223.304688 130.765625 223.3125 L 131.617188 227.484375 L 127.492188 228.304688 C 127.492188 228.304688 127.3125 228.328125 127.226562 228.355469 C 127.226562 228.355469 127.222656 228.355469 127.222656 228.359375 C 127.007812 228.429688 126.8125 228.570312 126.675781 228.773438 C 126.527344 229 126.476562 229.261719 126.511719 229.511719 L 126.539062 229.632812 C 126.601562 229.875 126.753906 230.097656 126.980469 230.25 C 127.214844 230.40625 127.488281 230.457031 127.742188 230.414062 L 127.761719 230.414062 C 127.761719 230.414062 133.191406 229.339844 133.222656 229.332031 C 133.4375 229.257812 133.632812 229.117188 133.769531 228.914062 C 133.902344 228.710938 133.957031 228.476562 133.941406 228.25 C 133.933594 228.160156 132.847656 222.902344 132.847656 222.902344 L 132.8125 222.726562 C 132.742188 222.492188 132.59375 222.28125 132.375 222.132812 C 132.167969 221.996094 131.933594 221.941406 131.703125 221.957031 C 131.617188 221.964844 131.53125 221.980469 131.445312 222.011719 C 131.226562 222.082031 131.03125 222.222656 130.894531 222.425781 C 130.75 222.644531 130.699219 222.898438 130.730469 223.140625 C 130.730469 223.148438 130.730469 223.15625 130.730469 223.167969 " fill-opacity="1" fill-rule="nonzero"/></g></g></g></g></svg>